<?xml version="1.0" standalone="no"?><!DOCTYPE svg PUBLIC "-//W3C//DTD SVG 1.1//EN" "http://www.w3.org/Graphics/SVG/1.1/DTD/svg11.dtd"><svg t="1557130989884" class="icon" style="" viewBox="0 0 1024 1024" version="1.1" xmlns="http://www.w3.org/2000/svg" p-id="8571" xmlns:xlink="http://www.w3.org/1999/xlink" width="64" height="64"><defs><style type="text/css"></style></defs><path d="M1023.918769 876.688438v125.174793c0 16.268578-5.664643 22.071383-21.553276 22.071384h-251.17856c-12.95269 0-20.378899-5.768265-20.724304-15.71593a14.023445 14.023445 0 0 1 11.432908-15.094202 45.869792 45.869792 0 0 1 11.951015-1.070755c75.678249 0 151.356497-0.207243 227.000206 0 8.807829 0 11.052962-2.314214 10.98388-11.052962-0.345405-76.818085-0.207243-153.636171-0.172702-230.454256 0-11.60561 4.283023-18.271928 12.572744-19.929872 10.880259-2.210592 19.446305 5.595562 19.480846 18.202846v119.959178zM991.588855 32.553011H754.848227a55.26481 55.26481 0 0 1-11.916475-1.174377 14.748796 14.748796 0 0 1-12.26188-15.474147 15.094201 15.094201 0 0 1 13.470798-15.508687 50.912706 50.912706 0 0 1 8.600586-0.345405h248.691643c17.270253 0 22.693112 5.388319 22.693113 22.624031v248.691643a37.027422 37.027422 0 0 1-1.830647 12.641826c-2.452376 6.562696-8.255181 10.776638-14.852418 9.118693a26.59619 26.59619 0 0 1-13.816202-9.60226c-2.348754-3.177727-1.899728-8.807829-1.899728-13.332636V43.985918zM32.364462 32.553011v236.257061a65.937826 65.937826 0 0 1-1.001675 11.951015A14.956039 14.956039 0 0 1 16.372208 293.644696 15.197823 15.197823 0 0 1 0.759899 281.348276 39.307096 39.307096 0 0 1 0.069089 272.920392V21.56913C0.069089 5.335092 5.491948 0.050395 22.00231 0.050395h249.486075a47.07871 47.07871 0 0 1 11.018422 1.243458 13.816202 13.816202 0 0 1 10.9148 14.714255 14.714256 14.714256 0 0 1-11.018422 14.852418 44.902658 44.902658 0 0 1-12.745447 1.554323H43.486505zM0.069089 876.204871v-127.799873c0-7.322587 2.245133-13.816202 9.118693-15.957714a24.834624 24.834624 0 0 1 15.992255 1.381621c3.074105 1.34708 5.077454 6.528156 6.251831 10.362151a43.382876 43.382876 0 0 1 0.69081 12.020097v225.27318c0 8.22064 2.07243 10.673016 10.362152 10.638476 75.678249-0.310865 151.356497-0.207243 227.034746 0a74.952898 74.952898 0 0 1 11.122043 0.794431 14.196148 14.196148 0 0 1 12.745447 14.127067 14.576094 14.576094 0 0 1-10.9148 15.64685 31.39732 31.39732 0 0 1-10.362152 1.277998H21.795067c-16.268578 0-21.795059-5.526481-21.795059-21.691437Q0.069089 939.206754 0.069089 876.204871zM616.099014 671.897777h162.340378a32.502616 32.502616 0 0 1 12.538204 2.176052 13.816202 13.816202 0 0 1 8.566045 15.439606 15.059661 15.059661 0 0 1-12.538203 13.505338 45.317144 45.317144 0 0 1-9.429558 0.69081h-170.906424c-18.202847 0-22.796734-4.76659-22.831275-23.24576v-166.588861c0-8.462424 3.177727-14.472472 11.225665-17.270253a13.816202 13.816202 0 0 1 16.890307 5.077455 29.877538 29.877538 0 0 1 3.972158 15.335984c0.345405 33.953317 0 67.906635 0 101.859953zM495.72535 527.967489c-4.386644-0.207243-8.047938-0.552648-11.674691-0.552648H248.415327a63.48545 63.48545 0 0 1-11.191124-0.587189 14.33431 14.33431 0 0 1-12.641825-14.023445 13.816202 13.816202 0 0 1 9.774963-15.370526 35.749424 35.749424 0 0 1 11.778313-1.830646h259.813686c16.199497 0 21.898681 5.664643 21.933221 21.656897v80.272136c0 11.57107-4.11032 17.615658-12.054636 19.308143-11.536529 2.452376-19.79171-4.870211-19.998953-18.375549-0.241784-20.137115 0-40.308771 0-60.445886zM224.271513 735.141444v-44.902658c0-12.020096 6.079129-18.237387 17.926523-18.271928q45.73163-0.276324 91.497801 0c11.674691 0 18.306468 6.459075 18.410089 18.202847q0.345405 45.282603 0 90.634288c0 12.572744-6.908101 18.790035-19.584467 18.824576q-44.453631 0.207243-88.907262 0c-13.436257 0-19.239062-5.975508-19.342684-19.584467-0.103622-14.99058 0-29.946619 0-44.902658z m32.05359-30.70651v62.691018h62.7601v-62.691018zM736.023651 224.356441h44.039145c13.816202 0 19.619007 5.768265 19.688088 19.239062v89.805315c0 11.847394-5.940967 18.513711-17.78836 18.651874q-46.180657 0.518108-92.361313 0c-11.709232 0-17.546577-6.908101-17.581118-18.928198v-89.805315c0-13.021771 6.044589-18.790035 19.169981-18.893657 14.921499-0.172703 29.877538-0.069081 44.833577-0.069081z m31.086455 94.91731V256.548192h-62.656478v62.725559zM288.033288 224.356441h44.902657c12.641825 0 18.997278 5.561021 19.135441 18.099225 0.414486 30.499267 0.345405 60.998534 0 91.4978 0 11.225664-6.597237 17.857442-17.822901 17.995604q-46.180657 0.587189-92.361313 0c-11.951015-0.172703-17.546577-6.562696-17.615659-18.755495q-0.207243-44.902658 0-89.805315c0-13.816202 5.768265-18.997278 19.688089-19.1009 14.714256 0 29.393971 0.069081 44.073686 0.069081z m-31.639104 31.984508v62.79464h62.898262V256.340949zM583.803641 407.835609v-37.234666-128.594304c0-8.255181 3.454051-14.852418 10.811178-16.613983a22.693112 22.693112 0 0 1 16.268578 3.833996c3.212267 2.210592 4.973833 8.462424 4.973833 12.918149q0.518108 89.321749 0 178.608957c0 12.918149-6.424534 19.273602-19.1009 19.377224-27.32154 0.276324-54.643081 0-81.96462 0-7.978857 0-14.576094-2.797781-17.788361-10.94934a12.918149 12.918149 0 0 1 4.213942-16.234038 31.086455 31.086455 0 0 1 15.854092-4.904752c21.8296-0.414486 43.797362-0.207243 66.732258-0.207243z" p-id="8572" fill="#ffffff"></path><path d="M768.008159 528.831001h-64.038098v31.36278c0 12.089177 0.276324 24.178354 0 36.232991-0.449027 11.156583-6.908101 17.270253-16.234038 17.270253s-15.370525-7.115344-15.577768-17.961063v-12.089178-69.909984c0-11.225664 6.355453-17.822901 17.581118-17.891982q46.180657-0.310865 92.361313 0c11.709232 0 17.788361 6.562696 17.822901 18.479171v81.135649c0 11.052962-5.940967 17.891982-15.232363 18.202846-10.051287 0.345405-16.234038-5.975508-16.406741-17.78836-0.276324-18.962738 0-37.994557 0-56.957295zM407.819762 331.328388V242.421125c0-11.916475 7.391668-19.273602 17.822902-18.237387 8.773289 0.863513 14.299769 7.149885 14.472472 17.270253 0.207243 13.229014 0 26.458028 0 39.721582v138.921915c0 14.645175-9.947666 23.17668-21.587817 18.720955-8.082478-3.108646-10.845719-9.53318-10.811178-17.788361 0.172703-29.877538 0.103622-59.789616 0.103621-89.701694zM331.657947 583.784946h88.838181c11.812853 0 19.480845 6.286372 19.619008 15.888633s-7.564371 16.268578-19.342684 16.268579H243.096089c-12.29642 0-18.928197-6.044589-18.790035-16.406741S231.490479 583.784946 243.717818 583.784946zM528.193426 767.713141h64.038098a49.496545 49.496545 0 0 1 11.985556 1.036215 14.230688 14.230688 0 0 1 11.260205 14.507013 13.816202 13.816202 0 0 1-9.774963 14.645174 34.540506 34.540506 0 0 1-10.949341 1.623404h-77.716138c-15.128742 0-21.13879-5.837346-21.173331-20.724303v-83.760728c0-6.908101 1.34708-12.98723 7.875236-17.028469a15.232363 15.232363 0 0 1 23.21122 8.87691 46.077035 46.077035 0 0 1 1.208918 11.951015c0.069081 22.589491 0.034541 44.971739 0.03454 68.873769zM736.507218 407.628366h44.902658c11.294745 0 18.341009 6.389994 18.341008 16.130416s-6.908101 16.164957-18.306468 16.199497q-45.76617 0.207243-91.4978 0c-11.122043 0-18.202847-6.908101-17.961063-16.579443s7.218966-15.646849 17.926522-15.71593c15.543228-0.034541 31.086455-0.034541 46.595143-0.03454zM495.863512 288.46362V241.868477c0-10.707557 6.389994-17.615658 15.785012-17.78836s16.337659 6.493615 16.40674 17.270253q0.345405 46.629683 0 93.259366c0 10.362152-7.288047 17.71928-16.268578 17.650199s-15.854092-7.49529-15.923174-17.891983c-0.103622-15.405066 0-30.637429 0-45.904332zM288.551395 407.628366h44.902658c11.052962 0 18.617333 6.666318 18.755495 15.992254s-7.52983 16.268578-18.44463 16.337659q-45.697089 0.207243-91.46326 0c-11.363826 0-18.064685-6.493615-17.961064-16.44128s6.908101-15.819552 18.513712-15.888633h45.697089zM407.819762 737.248415v-43.072011c0-11.018421 6.631777-18.582792 15.923174-18.755495s16.337659 7.49529 16.3722 18.375549q0.207243 43.935524 0 87.836507c0 11.260205-6.631777 18.168306-16.406741 18.064685s-15.819552-7.184425-15.888633-18.513712c-0.172703-14.645175 0-29.290349 0-43.935523zM737.543433 799.69765h-43.935524c-10.362152 0-17.788361-6.597237-17.857441-15.715931s6.908101-15.854092 17.650198-15.923173q44.419091-0.276324 88.769101 0c10.983881 0 17.546577 6.217291 17.581117 15.750471s-6.908101 15.854092-18.237387 15.923173c-14.645175 0-29.32489-0.034541-43.970064-0.03454z" p-id="8573" fill="#ffffff"></path></svg>