<?xml version="1.0" encoding="UTF-8"?>
<svg width="14px" height="14px" viewBox="0 0 14 14" version="1.1" xmlns="http://www.w3.org/2000/svg" xmlns:xlink="http://www.w3.org/1999/xlink">
    <!-- Generator: Sketch 52.2 (67145) - http://www.bohemiancoding.com/sketch -->
    <title>矩形</title>
    <desc>Created with Sketch.</desc>
    <g id="Page-1" stroke="none" stroke-width="1" fill="none" fill-rule="evenodd">
        <g id="三端统一-滑动效果" transform="translate(-17.000000, -168.000000)">
            <g id="竖排商品卡片-copy-4" transform="translate(7.000000, -17.000000)">
                <g id="天猫-T" transform="translate(10.000000, 185.000000)">
                    <rect id="矩形" fill="#000000" opacity="0" x="0" y="0" width="14" height="14"></rect>
                    <path d="M11.375,0.875 L2.625,0.875 C1.659,0.875 0.875,1.659 0.875,2.625 L0.875,8.119125 C1.043,8.008875 1.22325,7.924 1.420125,7.886375 C1.822625,7.807625 2.860375,7.81375 3.819375,9.4955 C4.13175,10.045875 4.43275,10.434375 5.455625,10.434375 L8.54,10.434375 C9.562,10.434375 9.863,10.045875 10.17625,9.4955 C11.13525,7.814625 12.173,7.807625 12.574625,7.886375 C12.77325,7.924875 12.956125,8.0115 13.125,8.1235 L13.125,2.625 C13.125,1.659 12.341,0.875 11.375,0.875 Z M9.1875,3.5 L7.875,3.5 L7.875,7 C7.875,7.483875 7.483875,7.875 7,7.875 C6.516125,7.875 6.125,7.483875 6.125,7 L6.125,3.5 L4.8125,3.5 C4.571,3.5 4.375,3.304 4.375,3.0625 C4.375,2.821 4.571,2.625 4.8125,2.625 L9.1875,2.625 C9.429,2.625 9.625,2.821 9.625,3.0625 C9.625,3.304 9.429,3.5 9.1875,3.5 Z" id="形状" fill="#FF022D" fill-rule="nonzero"></path>
                    <path d="M2.625,13.125 L4.375,13.125 C4.375,12.159 3.983875,11.375 3.5,11.375 C3.016125,11.375 2.625,12.159 2.625,13.125 Z" id="路径" fill="#000000" fill-rule="nonzero"></path>
                    <path d="M9.625,13.125 L11.375,13.125 C11.375,12.159 10.983875,11.375 10.5,11.375 C10.016125,11.375 9.625,12.159 9.625,13.125 Z" id="路径" fill="#000000" fill-rule="nonzero"></path>
                    <path d="M12.41975,8.803375 C11.942,8.715 11.402125,9.142 10.92525,9.979375 C10.450125,10.8115 9.862125,11.367125 8.539125,11.367125 L5.455625,11.367125 C4.13175,11.367125 3.544625,10.8115 3.068625,9.979375 C2.592625,9.141125 2.0475,8.714125 1.575,8.803375 C1.241625,8.866375 0.973875,9.19975 0.875,9.653 L0.875,11.375 C0.875,12.030375 1.239875,12.595625 1.77275,12.894875 C1.8865,12.03825 2.611875,11.375 3.5,11.375 C4.466,11.375 5.25,12.159 5.25,13.125 L6.125,13.125 C6.125,12.641125 6.516125,12.25 7,12.25 C7.483875,12.25 7.875,12.641125 7.875,13.125 L8.75,13.125 C8.75,12.159 9.534,11.375 10.5,11.375 C11.388125,11.375 12.1135,12.03825 12.22725,12.894875 C12.760125,12.595625 13.125,12.030375 13.125,11.375 L13.125,9.66875 C13.02875,9.20675 12.7575,8.86725 12.41975,8.803375 Z" id="路径" fill="#000000" fill-rule="nonzero"></path>
                </g>
            </g>
        </g>
    </g>
</svg>