<?xml version="1.0" encoding="UTF-8"?>
<svg width="18px" height="19px" viewBox="0 0 18 19" version="1.1" xmlns="http://www.w3.org/2000/svg" xmlns:xlink="http://www.w3.org/1999/xlink">
    <!-- Generator: Sketch 52.3 (67297) - http://www.bohemiancoding.com/sketch -->
    <title>no2</title>
    <desc>Created with Sketch.</desc>
    <g id="Page-1" stroke="none" stroke-width="1" fill="none" fill-rule="evenodd">
        <g id="搜索页01" transform="translate(-15.000000, -433.000000)">
            <g id="分组-4" transform="translate(15.000000, 431.000000)">
                <g id="no2">
                    <polygon id="矩形-copy" fill="#CE74FF" points="2.55795385e-13 2 18 2 18 16.8801337 9 21 0 16.8801337"></polygon>
                    <path d="M9.176,4.352 C10.264,4.352 11.176,4.656 11.88,5.296 C12.568,5.936 12.92,6.752 12.92,7.76 C12.92,8.752 12.536,9.648 11.8,10.464 C11.352,10.928 10.568,11.536 9.432,12.304 C8.2,13.12 7.464,13.84 7.224,14.464 L12.936,14.464 L12.936,16 L5.064,16 C5.064,14.864 5.432,13.872 6.2,13.008 C6.616,12.512 7.48,11.824 8.776,10.928 C9.544,10.384 10.088,9.952 10.408,9.616 C10.92,9.04 11.192,8.416 11.192,7.744 C11.192,7.104 11.016,6.624 10.664,6.304 C10.312,5.984 9.784,5.824 9.112,5.824 C8.392,5.824 7.848,6.064 7.48,6.56 C7.096,7.04 6.904,7.728 6.872,8.656 L5.128,8.656 C5.144,7.376 5.512,6.352 6.232,5.584 C6.968,4.752 7.96,4.352 9.176,4.352 Z" id="2" fill="#FFFFFF"></path>
                </g>
            </g>
        </g>
    </g>
</svg>