<?xml version="1.0" standalone="no"?><!DOCTYPE svg PUBLIC "-//W3C//DTD SVG 1.1//EN" "http://www.w3.org/Graphics/SVG/1.1/DTD/svg11.dtd"><svg t="1546444272148" class="icon" style="" viewBox="0 0 1024 1024" version="1.1" xmlns="http://www.w3.org/2000/svg" p-id="6672" xmlns:xlink="http://www.w3.org/1999/xlink" width="50" height="50"><defs><style type="text/css"></style></defs><path d="M864.679471 31.318203l-64.000805 0c-17.699974 0-38.13018 10.895155-38.13018 28.59513 0 17.705701 20.430206 35.407107 38.13018 35.407107l64.000805 0c38.13018 0 64.000805 25.876352 64.000805 64.000805l0 736.681439c0 38.124454-25.870625 64.000805-64.000805 64.000805L175.656104 960.00349c-38.123022 0-80.33638-25.876352-80.33638-64.000805L95.319724 159.321245c0-38.124454 25.870625-64.000805 64.000805-64.000805l80.337812 0c17.705701 0 24.511952-17.701406 24.511952-35.407107 0-17.699974-6.806251-28.59513-24.511952-28.59513L159.320529 31.318203C69.449099 31.318203 31.318919 87.148357 31.318919 160.679918l0 728.51222c0 78.977707 47.659504 134.807861 134.807861 134.807861l691.740713 0c87.154084 0 134.813588-46.300831 134.813588-134.807861L992.681081 160.679918C992.681081 87.148357 947.746082 31.318203 864.679471 31.318203L864.679471 31.318203 864.679471 31.318203z" p-id="6673" fill="#e98f36"></path><path d="M751.660488 464.342644 272.335217 464.342644c-17.695679 0-32.676876 14.976901-32.676876 32.684034 0 17.699974 14.981196 32.676876 32.676876 32.676876L753.019161 529.703554c17.699974 0 32.682603-14.976901 32.682603-32.676876C784.343091 477.960872 769.360463 464.342644 751.660488 464.342644L751.660488 464.342644 751.660488 464.342644z" p-id="6674" fill="#e98f36"></path><path d="M751.660488 287.317129 272.335217 287.317129c-17.695679 0-32.676876 14.976901-32.676876 32.684034 0 17.699974 14.981196 32.676876 32.676876 32.676876L753.019161 352.678039c17.699974 0 32.682603-14.976901 32.682603-32.676876C784.343091 300.935357 769.360463 287.317129 751.660488 287.317129L751.660488 287.317129 751.660488 287.317129z" p-id="6675" fill="#e98f36"></path><path d="M751.660488 656.189005 272.335217 656.189005c-17.695679 0-32.676876 14.976901-32.676876 32.684034 0 17.699974 14.981196 32.676876 32.676876 32.676876L753.019161 721.549915c17.699974 0 32.682603-14.976901 32.682603-32.676876C784.343091 669.807234 769.360463 656.189005 751.660488 656.189005L751.660488 656.189005 751.660488 656.189005z" p-id="6676" fill="#e98f36"></path><path d="M401.701227 111.661741l223.320619 0c25.870625 0 47.659504-25.872057 47.659504-55.831586C672.682782 25.877784 650.893903 0 623.657446 0L401.701227 0c-27.235025 0-49.018177 25.872057-49.018177 55.830155C352.68305 85.789684 374.466202 111.661741 401.701227 111.661741L401.701227 111.661741 401.701227 111.661741z" p-id="6677" fill="#e98f36"></path><path d="M401.701227 111.661741" p-id="6678" fill="#e98f36"></path></svg>