<?xml version="1.0" encoding="UTF-8"?>
<svg width="44px" height="67px" viewBox="0 0 44 67" version="1.1" xmlns="http://www.w3.org/2000/svg" xmlns:xlink="http://www.w3.org/1999/xlink">
    <!-- Generator: Sketch 48.1 (47250) - http://www.bohemiancoding.com/sketch -->
    <title>share</title>
    <desc>Created with Sketch.</desc>
    <defs></defs>
    <g id="四个样式" stroke="none" stroke-width="1" fill="none" fill-rule="evenodd" transform="translate(-53.000000, -756.000000)">
        <g id="share" transform="translate(53.000000, 756.000000)" fill="#666666">
            <g id="Group-4-Copy-3">
                <g id="Page-1-Copy-4" transform="translate(2.000000, 0.000000)">
                    <path d="M14.4848796,22.1474115 C14.4061471,22.3176733 14.3548556,22.5022052 14.3548556,22.7014193 C14.3548556,23.429501 14.9431178,24.0202915 15.6680206,24.0202915 C16.3021375,24.0202915 16.8064355,23.5598891 16.9298429,22.9585893 L16.9561041,22.9585893 C18.4792053,15.1405583 24.9159299,9.10046255 32.9045814,8.1931036 L30.1234022,10.9862731 C29.6100769,11.5020041 29.6100769,12.3367249 30.1234022,12.8511165 C30.6369328,13.366899 31.468009,13.366899 31.9801033,12.8511165 L37.0079016,7.80126961 C37.5211757,7.28574465 37.5211757,6.45081781 37.0079016,5.93663229 L31.9801033,0.886836901 C31.466778,0.371054366 30.6354966,0.371054366 30.1234022,0.886836901 C29.6100769,1.40236185 29.6100769,2.2372887 30.1234022,2.75168029 L32.893964,5.53434045 C23.7406364,6.44958142 16.353429,13.2719027 14.4848796,22.1474115 M36.0401335,16.3459914 C35.315282,16.3459914 34.7270198,16.9367818 34.7270198,17.6648636 L34.7270198,30.8530706 C34.7270198,31.5809463 34.1387575,32.1717883 33.4140599,32.1717883 L4.52653174,32.1717883 C3.8018341,32.1717883 3.21357185,31.5809463 3.21357185,30.8530706 L3.21357185,8.43317018 C3.21357185,7.70508842 3.8018341,7.11424644 4.52653174,7.11424644 L13.7181229,7.11424644 C14.4428205,7.11424644 15.0310828,6.52345598 15.0310828,5.79537422 C15.0310828,5.06749853 14.4428205,4.47665655 13.7181229,4.47665655 C13.6760638,4.47665655 13.6405701,4.49638735 13.599896,4.50040563 L4.54238081,4.50040563 C2.36926243,4.50040563 0.607142857,6.27288005 0.607142857,8.4595466 L0.607142857,30.8741924 C0.607142857,33.0606528 2.36926243,34.8333333 4.54238081,34.8333333 L33.4389363,34.8333333 C35.6120033,34.8333333 37.3741229,33.0606528 37.3741229,30.8741924 L37.3741229,17.6648636 L37.3530934,17.6648636 C37.3530934,16.9367818 36.7648312,16.3459914 36.0401335,16.3459914" id="Fill-1"></path>
                </g>
                <text id="分享" font-family="MicrosoftYaHei, Microsoft YaHei" font-size="22" font-weight="normal">
                    <tspan x="0" y="64">分享</tspan>
                </text>
            </g>
        </g>
    </g>
</svg>