<?xml version="1.0" encoding="UTF-8"?>
<svg width="147px" height="88px" viewBox="0 0 147 88" version="1.1" xmlns="http://www.w3.org/2000/svg" xmlns:xlink="http://www.w3.org/1999/xlink">
    <!-- Generator: Sketch 51.2 (57519) - http://www.bohemiancoding.com/sketch -->
    <title>icon</title>
    <desc>Created with Sketch.</desc>
    <defs>
        <polygon id="path-1" points="0 0 139 0 139 88 0 88"></polygon>
        <linearGradient x1="36.8993063%" y1="-7.78915918%" x2="88.1082548%" y2="92.513339%" id="linearGradient-3">
            <stop stop-color="#FFEEEE" offset="0%"></stop>
            <stop stop-color="#FFEBDE" offset="100%"></stop>
        </linearGradient>
        <polygon id="path-4" points="0 0 40 0 40 25 0 25"></polygon>
    </defs>
    <g id="Page-1" stroke="none" stroke-width="1" fill="none" fill-rule="evenodd">
        <g id="C端移动端我的收藏" transform="translate(-115.000000, -156.000000)">
            <g id="icon" transform="translate(110.000000, 156.000000)">
                <g id="云_f" transform="translate(13.000000, 0.000000)">
                    <mask id="mask-2" fill="white">
                        <use xlink:href="#path-1"></use>
                    </mask>
                    <g id="Clip-2"></g>
                    <path d="M116.698751,33.2354089 C116.706763,32.9042111 116.745974,32.5806872 116.745974,32.247571 C116.745974,14.43963 102.633886,0 85.2239702,0 C72.6801567,0 61.8803865,7.51517225 56.8057833,18.3644719 C54.6114939,17.2357136 52.1408513,16.5850033 49.5169442,16.5850033 C41.4657042,16.5850033 34.7969126,22.5762123 33.4935685,30.435314 C23.9052519,33.8001369 17,43.0832669 17,54.0361639 C17,67.8175841 27.9168922,78.9856987 41.3825084,79 L116.745974,79 L116.745974,78.9938958 C129.048043,78.929191 139,68.7154283 139,56.116658 C139,43.5014935 129.024175,33.2736039 116.698751,33.2354089 Z" id="Fill-1" fill="url(#linearGradient-3)" opacity="0.483761161" mask="url(#mask-2)"></path>
                </g>
                <g id="云端同步" transform="translate(112.000000, 67.000000) rotate(-270.000000) translate(-112.000000, -67.000000) translate(104.000000, 51.000000)" fill="#FF8D8D">
                    <path d="M13.1982893,22.9961629 L9.42206325,26.8524377 L9.42206325,19.5680831 C9.42206325,18.753942 8.75073095,18.068326 7.95347849,18.068326 C7.1562986,18.068326 6.4849663,18.753942 6.4849663,19.5680831 L6.4849663,26.8952794 L2.70874028,23.0390047 C2.12130638,22.4390722 1.19820632,22.4390722 0.652794194,23.0390047 C0.0653602903,23.6389372 0.0653602903,24.5816776 0.652794194,25.1386943 L6.98842924,31.6089077 C7.03045101,31.6517494 7.07240021,31.6945912 7.1562986,31.737507 C7.1982478,31.7803488 7.24019699,31.7803488 7.24019699,31.7803488 C7.28214619,31.8231905 7.32416796,31.8231905 7.40806636,31.8660322 C7.45001555,31.8660322 7.49196475,31.908874 7.53391395,31.908874 C7.57586314,31.908874 7.61781234,31.9517157 7.70178331,31.9517157 C7.7856817,31.9517157 7.91152929,31.9945574 7.99550026,31.9945574 L8.03744946,31.9945574 C8.12134785,31.9945574 8.20524624,31.9945574 8.28914463,31.9517157 C8.3731156,31.9517157 8.4150648,31.908874 8.49896319,31.908874 C8.54091239,31.908874 8.54091239,31.908874 8.58286159,31.8660322 C8.66683256,31.8231905 8.70878175,31.7803488 8.79268015,31.737507 C8.79268015,31.737507 8.83462934,31.737507 8.83462934,31.6945912 C8.91852773,31.6517494 9.00242613,31.566066 9.0444479,31.5232242 L15.3381337,25.0958526 C15.9255677,24.4959201 15.9255677,23.5532537 15.3381337,22.9961629 C14.7088232,22.4390722 13.7857232,22.4390722 13.1982893,22.9961629 Z" id="Fill-2"></path>
                    <path d="M6.40106791,13.6118222 C6.40106791,14.1934469 6.70494557,14.7311181 7.1982478,15.0218193 C7.69155003,15.3128169 8.29937792,15.3128169 8.79268015,15.0218193 C9.28598237,14.7311181 9.58986003,14.1934469 9.58986003,13.6118222 C9.58986003,12.7125165 8.87599793,11.9834658 7.99550026,11.9834658 C7.11493002,11.9834658 6.40106791,12.7125165 6.40106791,13.6118222 Z" id="Fill-3"></path>
                    <path d="M6.40106791,7.91261176 C6.40106791,8.49431058 6.70494557,9.03198173 7.1982478,9.32260878 C7.69155003,9.61360643 8.29937792,9.61360643 8.79268015,9.32260878 C9.28598237,9.03198173 9.58986003,8.49431058 9.58986003,7.91261176 C9.58986003,7.01330598 8.87599793,6.28425532 7.99550026,6.28425532 C7.11493002,6.28425532 6.40106791,7.01330598 6.40106791,7.91261176 Z" id="Fill-4"></path>
                    <path d="M6.40106791,2.21340128 C6.40106791,2.7951001 6.70494557,3.33277125 7.1982478,3.62347242 C7.69155003,3.91447007 8.29937792,3.91447007 8.79268015,3.62347242 C9.28598237,3.33277125 9.58986003,2.7951001 9.58986003,2.21340128 C9.58986003,1.31416962 8.87599793,0.585118957 7.99550026,0.585118957 C7.11493002,0.585118957 6.40106791,1.31416962 6.40106791,2.21340128 Z" id="Fill-5"></path>
                </g>
                <g id="云端同步-copy" transform="translate(128.000000, 77.606557) rotate(-90.000000) translate(-128.000000, -77.606557) translate(120.000000, 61.606557)" fill="#FF8D8D">
                    <path d="M12.8737412,22.7262526 L9.19037317,26.5372655 L9.19037317,19.3384088 C9.19037317,18.5338233 8.53554904,17.8562546 7.75790115,17.8562546 C6.98032404,17.8562546 6.32549992,18.5338233 6.32549992,19.3384088 L6.32549992,26.5796044 L2.64213191,22.7685915 C2.0691431,22.1757005 1.16874223,22.1757005 0.636741878,22.7685915 C0.0637530701,23.3614824 0.0637530701,24.2931578 0.636741878,24.8436366 L6.81658262,31.2379079 C6.85757107,31.2802468 6.89848873,31.3225857 6.98032404,31.3649978 C7.0212417,31.4073367 7.06215936,31.4073367 7.06215936,31.4073367 C7.10307702,31.4496756 7.14406547,31.4496756 7.22590079,31.4920145 C7.26681845,31.4920145 7.30773611,31.5343534 7.34865377,31.5343534 C7.38957142,31.5343534 7.43048908,31.5766923 7.51239519,31.5766923 C7.59423051,31.5766923 7.71698349,31.6190312 7.7988896,31.6190312 L7.83980726,31.6190312 C7.92164257,31.6190312 8.00347789,31.6190312 8.08531321,31.5766923 C8.16721932,31.5766923 8.20813698,31.5343534 8.2899723,31.5343534 C8.33088995,31.5343534 8.33088995,31.5343534 8.37180761,31.4920145 C8.45371372,31.4496756 8.49463138,31.4073367 8.5764667,31.3649978 C8.5764667,31.3649978 8.61738436,31.3649978 8.61738436,31.3225857 C8.69921968,31.2802468 8.78105499,31.195569 8.82204344,31.1532301 L14.9609665,24.8012977 C15.5339553,24.2084067 15.5339553,23.2768046 14.9609665,22.7262526 C14.3471309,22.1757005 13.44673,22.1757005 12.8737412,22.7262526 Z" id="Fill-2"></path>
                    <path d="M6.2436646,13.4520577 C6.2436646,14.0268557 6.54006986,14.5582161 7.0212417,14.8455053 C7.50241355,15.1330874 8.09529485,15.1330874 8.5764667,14.8455053 C9.05763855,14.5582161 9.3540438,14.0268557 9.3540438,13.4520577 C9.3540438,12.5633072 8.65773568,11.8428136 7.7988896,11.8428136 C6.93997272,11.8428136 6.2436646,12.5633072 6.2436646,13.4520577 Z" id="Fill-3"></path>
                    <path d="M6.2436646,7.81973992 C6.2436646,8.39461123 6.54006986,8.92597163 7.0212417,9.21318754 C7.50241355,9.50076969 8.09529485,9.50076969 8.5764667,9.21318754 C9.05763855,8.92597163 9.3540438,8.39461123 9.3540438,7.81973992 C9.3540438,6.93098946 8.65773568,6.21049581 7.7988896,6.21049581 C6.93997272,6.21049581 6.2436646,6.93098946 6.2436646,7.81973992 Z" id="Fill-4"></path>
                    <path d="M6.2436646,2.18742216 C6.2436646,2.76229347 6.54006986,3.29365388 7.0212417,3.58094303 C7.50241355,3.86852518 8.09529485,3.86852518 8.5764667,3.58094303 C9.05763855,3.29365388 9.3540438,2.76229347 9.3540438,2.18742216 C9.3540438,1.29874496 8.65773568,0.578251304 7.7988896,0.578251304 C6.93997272,0.578251304 6.2436646,1.29874496 6.2436646,2.18742216 Z" id="Fill-5"></path>
                </g>
                <g id="Group-13" transform="translate(15.000000, 6.000000)">
                    <path d="M20,33.5 C20,40.4036617 25.5964468,46 32.5002424,46 C39.4035532,46 45,40.4036617 45,33.5 C45,26.5968231 39.4035532,21 32.5002424,21 C25.5964468,21 20,26.5968231 20,33.5" id="Fill-1" fill="#6CF468"></path>
                    <path d="M42.5096124,2 C43.5208411,2 44.5515165,2.43926496 45.6501338,3.34808061 C46.9045678,4.37364279 48.207254,5.98599067 49.5105478,8.12552977 C55.403021,17.7777576 63.9304012,24.0206445 74.8691728,26.6777274 C77.2900445,27.2640246 79.2152683,28.0162826 80.5764161,28.8954232 C81.7723884,29.6772342 82.5116063,30.5268217 82.8225105,31.4942549 C83.1340224,32.4611996 83.0366674,33.5850682 82.5210866,34.923135 C81.9380501,36.4473123 80.8194999,38.1865427 79.1957,40.1013814 C71.8937054,48.7179111 68.6362607,58.8195398 69.5113624,70.1133021 C69.8322331,74.2949287 69.2877253,77.2844217 67.9360578,78.7498595 C67.1583111,79.5899217 66.0596938,80 64.5717778,80 C62.8701911,80 60.7213302,79.4630392 58.1736903,78.4078019 C52.9816631,76.2488457 47.7116061,75.1545301 42.5001322,75.1545301 C37.2880506,75.1545301 32.0179935,76.2488457 26.8259663,78.4078019 C24.2783264,79.4630392 22.1294655,80 20.4278788,80 C18.940449,80 17.8318653,79.5899217 17.0635989,78.7498595 C15.7119313,77.2844217 15.1674236,74.2949287 15.4882942,70.1133021 C16.3633959,58.8195398 13.096471,48.7279249 5.80395662,40.1013814 C4.18015675,38.1865427 3.06209275,36.4473123 2.47857005,34.923135 C1.96347545,33.5850682 1.86612039,32.4611996 2.17714612,31.4942549 C2.48805032,30.5268217 3.2272682,29.6772342 4.42324056,28.8954232 C5.78450992,28.0062688 7.70013191,27.2640246 10.13097,26.6777274 C21.0697416,24.0206445 29.6067236,17.7777576 35.489595,8.12552977 C36.7924027,5.98599067 38.0950889,4.37364279 39.3495229,3.34808061 C40.4775533,2.43926496 41.4982622,2 42.5096124,2" id="Fill-3" fill="#0EC69A"></path>
                    <path d="M42.4999907,0 C39.6530042,0 36.7966019,2.33956808 33.9502268,7.00813853 C28.2468381,16.3452794 20.1074551,22.3010239 9.52278443,24.8762319 C-1.06188627,27.45144 -2.82300212,32.9060503 4.24029284,41.2507514 C11.3030987,49.5949611 14.4140936,59.2272048 13.5729107,70.1566968 C12.956728,78.0489151 15.2064857,82 20.3032298,82 C22.2502154,82 24.6174867,81.4202373 27.4051661,80.2603432 C32.4335542,78.1669808 37.4716026,77.1250296 42.4999907,77.1250296 C47.5283787,77.1250296 52.5663049,78.1669808 57.5946929,80.2603432 C60.3828614,81.4202373 62.7501328,82 64.6966292,82 C69.7933734,82 72.033593,78.0489151 71.4269483,70.1466225 C70.5857655,59.2171305 73.6968826,49.5853782 80.7595662,41.2406771 C87.8228611,32.8964674 86.0622344,27.4413657 75.4770746,24.8666491 C64.9020642,22.3010239 56.7530209,16.3452794 51.0501213,7.00813853 C48.2032571,2.33956808 45.3563929,0 42.4999907,0" id="Fill-5" fill="#FFC4C0"></path>
                    <path d="M38.3705937,26.3298174 C35.6202773,30.7692081 31.6909031,33.5986657 26.5920489,34.8283131 C21.4842307,36.0479595 20.6395381,38.6434888 24.0480246,42.6145353 C27.4568796,46.5857038 28.9597424,51.1615729 28.5471581,56.3622669 C28.1442745,61.5628389 30.3646165,63.1631368 35.2172709,61.172674 C40.0700481,59.1822112 44.9227024,59.1822112 49.7855486,61.172674 C54.638203,63.1631368 56.8682457,61.5628389 56.4556614,56.3622669 C56.0527778,51.1615729 57.54594,46.5857038 60.9549177,42.6145353 C64.3634043,38.6434888 63.5086426,36.0479595 58.4102795,34.8283131 C53.3024614,33.6086668 49.3730871,30.7692081 46.6322258,26.3298174 C43.8617714,21.8900609 41.1113322,21.8900609 38.3705937,26.3298174" id="Fill-7" fill="#FFA9A9"></path>
                    <path d="M22.811071,28 C22.1684118,28 21.5458318,27.6674035 21.2149019,27.0707115 C20.7427903,26.2095571 21.0742222,25.1426551 21.9575805,24.682965 C28.0616503,21.4925344 31.8364101,17.5977674 31.8765685,17.5586241 C32.559386,16.8442573 33.7040246,16.8151444 34.426624,17.4706738 C35.1595139,18.1362336 35.1898837,19.2515755 34.5173568,19.9562788 C34.3463073,20.1321794 30.290188,24.3207663 23.664436,27.7749255 C23.3933671,27.9317437 23.1022191,28 22.811071,28" id="Fill-9" fill="#FFF7F7"></path>
                    <path d="M16.942051,31 C16.1562841,31 15.4137075,30.5480246 15.1230814,29.8255165 C14.7467475,28.8918272 15.2634161,27.8478419 16.264058,27.5066644 L17.3946743,27.1150445 C18.3953162,26.7635778 19.5147649,27.2454171 19.8811422,28.1791064 C20.2469813,29.1124193 19.7408075,30.1564046 18.7401656,30.498084 L17.6095493,30.889202 C17.3946743,30.9597212 17.1686318,31 16.942051,31" id="Fill-11" fill="#FFF7F7"></path>
                </g>
                <g id="云_f-copy" transform="translate(0.000000, 56.000000)">
                    <mask id="mask-5" fill="white">
                        <use xlink:href="#path-4"></use>
                    </mask>
                    <g id="Clip-2"></g>
                    <path d="M33.6021006,9.67613171 C33.6043993,9.57970704 33.6156484,9.48551654 33.6156484,9.38853333 C33.6156484,4.20394291 29.5670984,0 24.5724505,0 C20.9738155,0 17.8755207,2.18796154 16.4196919,5.34661839 C15.7901827,5.01799256 15.0813918,4.82854525 14.3286315,4.82854525 C12.0188496,4.82854525 10.1056716,6.5728213 9.73176144,8.8609142 C6.98101488,9.84054618 5,12.5432296 5,15.7320477 C5,19.7443599 8.13189531,22.9958363 11.9949819,23 L33.6156484,23 L33.6156484,22.9982228 C37.1449303,22.9793847 40,20.0057576 40,16.3377612 C40,12.6649918 37.138083,9.68725177 33.6021006,9.67613171 Z" id="Fill-1" fill="url(#linearGradient-3)" mask="url(#mask-5)"></path>
                </g>
            </g>
        </g>
    </g>
</svg>