<?xml version="1.0" standalone="no"?><!DOCTYPE svg PUBLIC "-//W3C//DTD SVG 1.1//EN" "http://www.w3.org/Graphics/SVG/1.1/DTD/svg11.dtd"><svg t="1547034965338" class="icon" style="" viewBox="0 0 2161 1024" version="1.1" xmlns="http://www.w3.org/2000/svg" p-id="34306" xmlns:xlink="http://www.w3.org/1999/xlink" width="67.53125" height="32"><defs><style type="text/css"></style></defs><path d="M1649.777778 1024H512c-284.444444 0-512-227.555556-512-512s227.555556-512 512-512h1137.777778c284.444444 0 512 227.555556 512 512s-227.555556 512-512 512z" fill="#FF917B" p-id="34307"></path><path d="M1649.777778 967.111111H512c-250.311111 0-455.111111-204.8-455.111111-455.111111s204.8-455.111111 455.111111-455.111111h1137.777778c250.311111 0 455.111111 204.8 455.111111 455.111111s-204.8 455.111111-455.111111 455.111111z" fill="#FF601A" p-id="34308"></path><path d="M1763.555556 250.311111h-176.355556l-250.311111 284.444445H1308.444444v-284.444445h-170.666666v56.888889h56.888889v512h73.955555l494.933334-568.888889z" fill="#FFFFFF" p-id="34309"></path><path d="M1820.444444 381.155556h96.711112l-51.2 278.755555h45.511111l-11.377778 68.266667h-45.511111l-17.066667 91.022222h-85.333333l17.066666-91.022222h-159.288888l11.377777-73.955556L1820.444444 381.155556z m-11.377777 113.777777l-119.466667 164.977778h91.022222l28.444445-164.977778zM1063.822222 517.688889l-170.666666-261.688889h-455.111112l-170.666666 261.688889 398.222222 364.088889 398.222222-364.088889z" fill="#FFFFFF" p-id="34310"></path><path d="M517.688889 517.688889l147.911111-261.688889h-227.555556l-170.666666 261.688889h250.311111z" fill="#FFEFE1" p-id="34311"></path><path d="M517.688889 517.688889L438.044444 256l-170.666666 261.688889h250.311111z" fill="#FCE4D0" p-id="34312"></path><path d="M1063.822222 517.688889l-170.666666-261.688889h-227.555556l147.911111 261.688889h250.311111z" fill="#FFEFE1" p-id="34313"></path><path d="M1063.822222 517.688889l-170.666666-261.688889-79.644445 261.688889h250.311111z" fill="#FCE4D0" p-id="34314"></path><path d="M267.377778 517.688889l398.222222 364.088889 398.222222-364.088889h-796.444444z" fill="#FCDFC5" p-id="34315"></path><path d="M267.377778 517.688889l398.222222 364.088889-147.911111-364.088889H267.377778zM813.511111 517.688889l-147.911111 364.088889 398.222222-364.088889h-250.311111z" fill="#FBD1A6" p-id="34316"></path><path d="M665.6 881.777778L512 529.066667c-5.688889-11.377778-5.688889-11.377778-11.377778-11.377778H267.377778h250.311111c5.688889 0 5.688889 0 5.688889 5.688889l142.222222 358.4z" fill="#FFEADE" p-id="34317"></path><path d="M665.6 881.777778l153.6-352.711111c5.688889-5.688889 5.688889-5.688889 11.377778-5.688889l233.244444-11.377778h-250.311111c-5.688889 0-5.688889 0-5.688889 5.688889l-142.222222 364.088889z" fill="#FFEADE" p-id="34318"></path><path d="M665.6 256l153.6 261.688889h-17.066667zM665.6 256L506.311111 517.688889h11.377778z" fill="#FFFAFA" p-id="34319"></path><path d="M438.044444 256l62.577778 250.311111c0 5.688889 0 5.688889-5.688889 5.688889l-227.555555 5.688889h250.311111c5.688889 0 5.688889 0 5.688889-5.688889L438.044444 256zM893.155556 256l-62.577778 250.311111c0 5.688889 0 5.688889 5.688889 5.688889l227.555555 5.688889h-250.311111c-5.688889 0-5.688889 0-5.688889-5.688889l85.333334-256z" fill="#FFFAFA" p-id="34320"></path><path d="M1939.911111 164.977778C2076.444444 284.444444 2093.511111 398.222222 2093.511111 512c0 227.555556-199.111111 432.355556-449.422222 432.355556h-1137.777778c-113.777778 0-227.555556-22.755556-341.333333-142.222223C244.622222 904.533333 369.777778 967.111111 512 967.111111h1137.777778c250.311111 0 455.111111-204.8 455.111111-455.111111 0-142.222222-62.577778-267.377778-164.977778-347.022222z" fill="#FFAEA6" p-id="34321"></path><path d="M73.955556 517.688889c0-233.244444 216.177778-438.044444 443.733333-438.044445h1137.777778c113.777778 0 233.244444 39.822222 341.333333 136.533334C1917.155556 119.466667 1792 56.888889 1649.777778 56.888889H512C261.688889 56.888889 56.888889 261.688889 56.888889 512c0 142.222222 62.577778 267.377778 164.977778 347.022222-96.711111-96.711111-147.911111-199.111111-147.911111-341.333333z" fill="#FF5215" p-id="34322"></path></svg>