<?xml version="1.0" encoding="UTF-8"?>
<svg width="24px" height="24px" viewBox="0 0 24 24" version="1.1" xmlns="http://www.w3.org/2000/svg" xmlns:xlink="http://www.w3.org/1999/xlink">
    <!-- Generator: Sketch 48.1 (47250) - http://www.bohemiancoding.com/sketch -->
    <title>wode_icon_servicer</title>
    <desc>Created with Sketch.</desc>
    <defs>
        <linearGradient x1="33.5639656%" y1="0%" x2="78.5595424%" y2="100%" id="linearGradient-1">
            <stop stop-color="#FAC45D" offset="0%"></stop>
            <stop stop-color="#F88F33" offset="100%"></stop>
        </linearGradient>
    </defs>
    <g id="个人中心" stroke="none" stroke-width="1" fill="none" fill-rule="evenodd" transform="translate(-15.000000, -442.000000)">
        <g id="Group-11" transform="translate(15.000000, 442.000000)">
            <g id="wode_icon_servicer" transform="translate(2.000000, 2.000000)">
                <rect id="Rectangle-path" fill="#000000" fill-rule="nonzero" opacity="0" x="0" y="0" width="20" height="20"></rect>
                <circle id="Oval" fill="url(#linearGradient-1)" opacity="0.300000012" cx="11.25" cy="12.5" r="5"></circle>
                <path d="M17.242,7.4685 C16.225,4.2975 13.4235,2.009 10.127,2.009 C6.843,2.009 4.0505,4.281 3.024,7.4345 C1.632,7.54 0.529,8.776 0.529,10.284 L0.529,12.367 C0.529,13.9435 1.7345,15.2265 3.216,15.2265 L4.6545,15.2265 C5.06871356,15.2265 5.4045,14.8907136 5.4045,14.4765 L5.4045,8.174 C5.4045,7.75978644 5.06871356,7.424 4.6545,7.424 L4.6195,7.424 C5.559,5.121 7.672,3.509 10.127,3.509 C12.5825,3.509 14.696,5.121 15.635,7.424 L15.3455,7.424 C14.9312864,7.424 14.5955,7.75978644 14.5955,8.174 L14.5955,14.476 C14.5955,14.6665 14.669,14.8385 14.786,14.971 C13.6645,16.268 12.014,17.0085 9.9845,17.0085 C9.70835763,17.0085 9.4845,17.2323576 9.4845,17.5085 C9.4845,17.7846424 9.70835763,18.0085 9.9845,18.0085 C12.505,18.0085 14.5535,16.98 15.8555,15.226 L16.7835,15.226 C18.265,15.226 19.4705,13.9435 19.4705,12.3665 L19.4705,10.2835 C19.471,8.873 18.506,7.701 17.242,7.4685 Z M3.9045,10.587 L3.9045,13.7265 L3.216,13.7265 C2.5615,13.7265 2.029,13.1165 2.029,12.367 L2.029,10.284 C2.029,10.166 2.046,10.0535 2.071,9.9445 C2.077,9.9185 2.0845,9.893 2.092,9.8675 C2.1195,9.773 2.153,9.682 2.197,9.598 C2.2015,9.589 2.205,9.5795 2.21,9.5705 C2.3205,9.367 2.4765,9.202 2.662,9.089 C2.73946816,9.04195851 2.82220401,9.00419874 2.9085,8.9765 C2.9175,8.974 2.9255,8.97 2.9345,8.9675 C3.0245,8.9405 3.1185,8.9245 3.216,8.9245 L3.9045,8.9245 L3.9045,10.587 Z M17.971,12.3665 C17.971,13.116 17.4385,13.726 16.784,13.726 L16.096,13.726 L16.096,8.924 L16.7845,8.924 C17.11,8.924 17.4055,9.0755 17.6205,9.32 C17.8502622,9.58829301 17.9749667,9.93078651 17.9715,10.284 L17.9715,12.3665 L17.971,12.3665 Z" id="Shape" fill="url(#linearGradient-1)" fill-rule="nonzero"></path>
            </g>
        </g>
    </g>
</svg>