<?xml version="1.0" encoding="UTF-8"?>
<svg width="24px" height="24px" viewBox="0 0 24 24" version="1.1" xmlns="http://www.w3.org/2000/svg" xmlns:xlink="http://www.w3.org/1999/xlink">
    <!-- Generator: Sketch 48.1 (47250) - http://www.bohemiancoding.com/sketch -->
    <title>wode_icon_history</title>
    <desc>Created with Sketch.</desc>
    <defs>
        <linearGradient x1="-1.11022302e-14%" y1="50%" x2="100%" y2="50%" id="linearGradient-1">
            <stop stop-color="#5ADFF1" offset="0%"></stop>
            <stop stop-color="#1DACF9" offset="100%"></stop>
        </linearGradient>
        <linearGradient x1="7.46154461%" y1="7.31621677%" x2="94.1124912%" y2="95.5428835%" id="linearGradient-2">
            <stop stop-color="#5ADFF1" offset="0%"></stop>
            <stop stop-color="#14A4FA" offset="100%"></stop>
        </linearGradient>
    </defs>
    <g id="个人中心" stroke="none" stroke-width="1" fill="none" fill-rule="evenodd" transform="translate(-15.000000, -333.000000)">
        <g id="Group-13" transform="translate(15.000000, 333.000000)" fill-rule="nonzero">
            <g id="wode_icon_history" transform="translate(2.000000, 2.000000)">
                <path d="M11.2212429,8.00281431 C9.97188017,7.98204986 8.55026307,8.18532287 7.41193172,9.24758823 C6.27256269,10.3098536 6.4147244,12.9633313 8.02519866,13.6769725 C9.63671059,14.3895209 9.99159602,15.6222733 9.55992251,17.1566566 C9.128249,18.6910399 9.86499946,20.0035715 11.7068756,20.0035715 C14.8821664,20.0035715 16.0028572,16.8703258 16.0028572,13.3600415 C16.0028572,9.54266195 14.5781271,8.05636472 11.2212429,8.00281431 Z" id="Shape-Copy" fill="url(#linearGradient-1)" opacity="0.300000012"></path>
                <path d="M4.83428574,2.66714287 C4.83428574,1.47102238 3.86326336,0.5 2.66714287,0.5 C1.47102238,0.5 0.5,1.47102238 0.5,2.66714287 C0.5,3.86326336 1.47102238,4.83428574 2.66714287,4.83428574 C3.86326336,4.83428574 4.83428574,3.86326336 4.83428574,2.66714287 Z M10.0017858,3.5007143 C10.8298405,3.5007143 11.5021429,2.82841192 11.5021429,2.00035715 C11.5021429,1.17230238 10.8298405,0.5 10.0017858,0.5 C9.17373098,0.5 8.5014286,1.17230238 8.5014286,2.00035715 C8.5014286,2.82841192 9.17373098,3.5007143 10.0017858,3.5007143 Z M16.6696429,1.83357143 C15.8415882,1.83357143 15.1692858,2.50587381 15.1692858,3.33392859 C15.1692858,4.16198336 15.8415882,4.83428574 16.6696429,4.83428574 C17.4976977,4.83428574 18.1700001,4.16198336 18.1700001,3.33392859 C18.1700001,2.50587381 17.4976977,1.83357143 16.6696429,1.83357143 Z M9.85018749,5.85956625 L9.84987066,5.85956135 C7.94092703,5.82943682 6.46127439,6.21835563 5.29363865,7.25294257 C4.01293895,8.38667673 4.32223683,11.1401926 5.94391065,11.8225079 C8.1501505,12.7487592 8.86377064,14.4385616 8.20211123,16.6716621 C7.70941235,18.3345208 8.5630098,19.5035715 10.4818715,19.5035715 C13.8191147,19.5035715 15.5028572,16.6179852 15.5028572,11.8967908 C15.5028572,7.56013195 13.9377376,5.92147968 9.85018749,5.85956625 Z" id="Shape" stroke="url(#linearGradient-2)"></path>
            </g>
        </g>
    </g>
</svg>