<?xml version="1.0" encoding="UTF-8"?>
<svg width="38px" height="35px" viewBox="0 0 38 35" version="1.1" xmlns="http://www.w3.org/2000/svg" xmlns:xlink="http://www.w3.org/1999/xlink">
    <!-- Generator: Sketch 48.1 (47250) - http://www.bohemiancoding.com/sketch -->
    <title>key</title>
    <desc>Created with Sketch.</desc>
    <defs></defs>
    <g id="样式示意" stroke="none" stroke-width="1" fill="none" fill-rule="evenodd" transform="translate(-248.000000, -932.000000)">
        <path d="M275.5,941.62132 L265.694398,951.426922 C266.830231,952.992379 267.5,954.917973 267.5,957 C267.5,962.246705 263.246705,966.5 258,966.5 C252.753295,966.5 248.5,962.246705 248.5,957 C248.5,951.753295 252.753295,947.5 258,947.5 C260.082027,947.5 262.007621,948.169769 263.573078,949.305602 L280.532211,932.346469 L282.653531,934.467789 L277.62132,939.5 L280.5,942.37868 L283.5,939.37868 L285.62132,941.5 L277.5,949.62132 L275.37868,947.5 L278.37868,944.5 L275.5,941.62132 Z M258,963.5 C261.589851,963.5 264.5,960.589851 264.5,957 C264.5,953.410149 261.589851,950.5 258,950.5 C254.410149,950.5 251.5,953.410149 251.5,957 C251.5,960.589851 254.410149,963.5 258,963.5 Z" id="key" fill="#666666" fill-rule="nonzero"></path>
    </g>
</svg>