<?xml version="1.0" standalone="no"?><!DOCTYPE svg PUBLIC "-//W3C//DTD SVG 1.1//EN" "http://www.w3.org/Graphics/SVG/1.1/DTD/svg11.dtd"><svg t="1546443760301" class="icon" style="" viewBox="0 0 1152 1024" version="1.1" xmlns="http://www.w3.org/2000/svg" p-id="2173" xmlns:xlink="http://www.w3.org/1999/xlink" width="27" height="24"><defs><style type="text/css"></style></defs><path d="M992 896h-704c-52.992 0-96-43.008-96-96v-512C192 235.008 235.008 192 288 192h704c52.992 0 96 43.008 96 96v512c0 52.992-43.008 96-96 96z" fill="#E8FFCE" p-id="2174"></path><path d="M864 896h-704c-52.992 0-96-43.008-96-96v-512C64 235.008 107.008 192 160 192h704c52.992 0 96 43.008 96 96v512c0 52.992-43.008 96-96 96zM160 256a32 32 0 0 0-32 32v512a32 32 0 0 0 32 32h704a32 32 0 0 0 32-32v-512a32 32 0 0 0-32-32h-704z m307.456 320h-256a32 32 0 1 1 0-64h256a32 32 0 0 1 0 64z m128 160h-384a32 32 0 1 1 0-64h384a32 32 0 0 1 0 64z m32-304a112 112 0 1 1 224 0 112 112 0 0 1-224 0z m67.648-18.368a48 48 0 1 0 88.704 36.736 48 48 0 0 0-88.704-36.736z" fill="#7ED321" p-id="2175"></path></svg>