<?xml version="1.0" encoding="UTF-8"?>
<svg width="154px" height="110px" viewBox="0 0 154 110" version="1.1" xmlns="http://www.w3.org/2000/svg" xmlns:xlink="http://www.w3.org/1999/xlink">
    <!-- Generator: Sketch 51.2 (57519) - http://www.bohemiancoding.com/sketch -->
    <title>图片</title>
    <desc>Created with Sketch.</desc>
    <defs>
        <polygon id="path-1" points="0 0 154 0 154 110 0 110"></polygon>
    </defs>
    <g id="Page-1" stroke="none" stroke-width="1" fill="none" fill-rule="evenodd">
        <g id="详情页-0702" transform="translate(-111.000000, -144.000000)">
            <g id="图片" transform="translate(111.000000, 144.000000)">
                <mask id="mask-2" fill="white">
                    <use xlink:href="#path-1"></use>
                </mask>
                <g id="Clip-2"></g>
                <path d="M39.0004411,44 C46.7140243,44 53,37.4889807 53,29.4920965 C53,21.4941442 46.7140243,15 39.0004411,15 C31.2866455,15 25.0000327,21.5110193 25.0000327,29.4920965 C24.9834672,37.4889807 31.2692305,44 39.0004411,44 Z M39.0004411,22.3310647 C42.6191565,22.3310647 45.5758885,25.5443865 45.5758885,29.4920965 C45.5758885,33.4387384 42.6365716,36.6689353 39.0004411,36.6689353 C35.3817257,36.6689353 32.4249937,33.4562543 32.4249937,29.4920965 C32.4249937,25.5443865 35.3643106,22.3310647 39.0004411,22.3310647 Z" id="Fill-1" fill="#E0E0E0" mask="url(#mask-2)"></path>
                <path d="M133.751029,0 L20.2663493,0 C9.09321354,0 0,8.9203125 0,19.8857227 L0,90.1142773 C0,101.079687 9.09321354,110 20.2663493,110 L133.73341,110 C144.906546,110 153.999974,101.079687 153.999974,90.1142773 L153.999974,19.86875 C154.017594,8.9203125 144.924165,0 133.751029,0 Z M7.52875967,19.86875 C7.52875967,12.9761328 13.2530579,7.3734375 20.283109,7.3734375 L133.751029,7.3734375 C140.781295,7.3734375 146.505594,12.9761328 146.505594,19.86875 L146.505594,90.0966602 C146.505594,90.7671875 146.454455,91.4203125 146.351104,92.0732227 L110.42539,44.721875 C107.485136,40.8546875 102.998907,38.6375 98.0829423,38.6375 L97.9965654,38.6375 C93.0462216,38.671875 88.5423736,40.9404102 85.6375732,44.8595898 L71.9380196,63.3872852 C70.5622198,65.24375 68.431159,66.3950977 66.093825,66.5504297 C63.7554166,66.7046875 61.4866254,65.8276953 59.871033,64.1779102 L57.481486,61.7205273 C54.4733341,58.6263477 50.2447319,56.9075977 45.8962334,57.0283398 C41.5299009,57.1484375 37.42141,59.0904102 34.602127,62.3558203 L7.94173596,93.2589453 C7.66649006,92.2450977 7.52875967,91.196875 7.52875967,90.1142773 L7.52875967,19.86875 Z M20.2663493,102.609805 C17.1894396,102.609805 14.3533969,101.526348 12.1527189,99.7386328 C12.2558556,99.653125 12.3422325,99.5497852 12.4279648,99.4466602 L40.3440445,67.134375 C41.8045022,65.4502148 43.8498307,64.4698828 46.1194813,64.4019922 C48.3712979,64.3330273 50.485599,65.1924023 52.0491933,66.7904102 L54.4387403,69.2484375 C57.6013823,72.5140625 62.0364726,74.1982227 66.6090784,73.90625 C71.1816842,73.6142773 75.3415286,71.3448828 78.0398409,67.7185352 L91.7226348,49.1908398 C93.2015712,47.1801172 95.5045264,46.0276953 98.0309443,46.0109375 L98.0829423,46.0109375 C100.5926,46.0109375 102.895771,47.1455273 104.391467,49.1220898 L141.950607,98.6736523 C142.104882,98.8792578 142.276992,99.0513477 142.449101,99.2234375 C140.16269,101.320742 137.10254,102.626563 133.73341,102.626563 L20.2663493,102.626563 L20.2663493,102.609805 Z" id="Fill-3" fill="#E0E0E0" mask="url(#mask-2)"></path>
            </g>
        </g>
    </g>
</svg>