<?xml version="1.0" encoding="UTF-8"?>
<svg width="60px" height="18px" viewBox="0 0 60 18" version="1.1" xmlns="http://www.w3.org/2000/svg" xmlns:xlink="http://www.w3.org/1999/xlink">
    <!-- Generator: Sketch 49 (51002) - http://www.bohemiancoding.com/sketch -->
    <title>Group 13 Copy 2</title>
    <desc>Created with Sketch.</desc>
    <defs></defs>
    <g id="Page-1" stroke="none" stroke-width="1" fill="none" fill-rule="evenodd">
        <g id="聚划算-首页模块" transform="translate(-10.000000, -453.000000)" fill="#E61514">
            <g id="Group-11" transform="translate(10.000000, 453.000000)">
                <g id="Group-13-Copy-2">
                    <path d="M28.4146306,4.19540811 L28.4146306,2.57587498 L30.1292246,2.57587498 C29.8434575,1.90749289 29.6291354,1.11058773 29.4862519,0.185135602 L31.9268974,0.185135602 C32.0697809,1.11058773 32.2602895,1.90749289 32.4984287,2.57587498 L34.5585924,2.57587498 C34.7014759,2.21597693 34.8681709,1.5990181 35.0586823,0.724979978 C35.1063102,0.467909942 35.1539373,0.287963616 35.2015651,0.185135602 L37.6422107,0.185135602 C37.4516993,1.05917372 37.2373772,1.85607888 36.9992379,2.57587498 L38.7138319,2.57587498 L38.7138319,4.19540811 L37.0706794,4.19540811 L37.0706794,9.05400749 L39.071039,9.05400749 L39.071039,10.59642 L37.0706794,10.59642 L37.0706794,17.9228794 L34.6300338,17.9228794 L34.6300338,10.59642 L32.6529489,10.59642 L32.6529489,11.4447469 C32.7958325,14.5810013 30.7483973,16.7660638 27.9859821,18 L28.4146306,16.3804669 C29.7482104,15.4550147 29.9387146,13.9640317 29.8434589,11.7532294 L29.8434589,10.59642 L27.8430993,10.59642 L27.8430993,9.05400749 L29.8434589,9.05400749 L29.8434589,4.19540811 L28.4146306,4.19540811 Z M21.5739459,5.49569772 L21.6044213,2.88435748 L23.4618981,2.88435748 L23.4618981,0.262256227 L26.1999467,0.262256227 L26.1999467,2.88435748 L27.628775,2.88435748 L27.6626817,4.19540811 L26.1999467,4.42676998 L26.1999467,8.28280124 L27.7002164,7.82007749 L27.7002164,9.28536936 C27.1286823,9.59385341 26.6285973,9.82521297 26.1999467,9.97945499 L26.1999467,15.53214 C26.1999467,17.0231462 24.7240372,17.7429315 23.2475739,17.6915175 L21.8187455,17.6915175 L21.8187455,16.0719844 L22.6046011,16.0719844 C23.1761353,16.1233984 23.4618981,15.8663322 23.4618981,15.3007781 L23.4618981,10.8277819 C23.3190146,10.8791959 21.9378162,11.6504014 21.6044213,11.7532294 L21.4615385,9.13112811 C22.1759562,9.07971411 22.8427361,8.97688763 23.4618981,8.82264561 L23.4618981,5.04373498 L21.5739459,5.49569772 Z M32.6529489,4.19540811 L32.6529489,9.05400749 L34.6300338,9.05400749 L34.6300338,4.19540811 L32.6529489,4.19540811 Z M42.1662947,17.4601556 L42.1662947,0.354221668 L45.2615504,0.332365886 L45.2615504,1.34697458 C51.5088198,-0.209805222 55.5959739,-0.417136757 57.5230126,0.724979978 C60.4135706,2.43815508 59.4618015,13.4582658 59.0730185,14.6838131 C58.6842354,15.9093604 57.5018554,17.5115696 55.6919971,17.4601556 L42.1662947,17.4601556 Z M46.0474059,6.58614749 L46.0474059,5.04373498 L51.6198364,5.04373498 L51.6198364,3.19283998 L53.8345203,3.19283998 L53.8345203,5.04373498 L56.6064942,5.04373498 C56.6064942,3.80980498 56.2657373,2.83573796 55.5842237,2.12153391 C54.90271,1.40732986 51.4618189,1.51287025 45.2615504,2.43815508 L45.2615504,15.9948637 L54.9061415,15.9948637 C55.6681871,15.9948637 56.6064942,13.4582658 56.6064942,10.6064792 C56.6064942,8.70528814 56.6064942,7.36517757 56.6064942,6.58614749 L53.8345203,6.58614749 L53.8345203,12.3701944 C53.8821481,14.1182706 53.120114,14.966589 51.548395,14.915175 L49.9766838,14.915175 L49.9766838,13.4498831 L50.691098,13.4498831 C51.31026,13.4498831 51.6198364,13.1156971 51.6198364,12.447315 L51.6198364,6.58614749 L51.0483051,6.58614749 C50.6196544,10.390784 48.9527047,13.1413921 46.0474059,14.8380544 L46.4347225,13.1414006 C48.1016972,11.3933244 48.6669233,9.25967586 48.9050626,6.58614749 L46.0474059,6.58614749 Z" id="拼团-copy-9"></path>
                    <path d="M5.68391416,14.3315225 C6.31065856,13.915761 6.85095466,13.4755436 7.30480242,13.0108703 L8.5799017,14.6005456 C7.08868486,16.1902209 2.37729977,17.5597851 1.21025926,17.5597851 L0.950916439,16.7527206 C0.88608292,16.6059774 0.842859834,16.4592391 0.821247203,16.2880448 C2.98243156,15.8722834 4.58170937,15.040763 5.68391416,14.3315225 Z M16.9653006,9.04891117 C16.3601688,8.19293235 15.755037,7.55706221 15.1499053,6.8967361 C14.4583251,7.41032388 13.6802989,7.92390922 12.9022726,8.41304103 C13.5722401,8.21738832 14.1125362,8.04619402 14.6096092,7.82608531 C14.7176679,8.1195644 14.8473394,8.41304103 14.9770108,8.7065201 C15.214741,9.19564948 15.4740838,9.75815167 15.755037,10.1249987 C14.7176679,10.3451074 13.2696742,10.5407601 11.692009,10.7119544 C12.1458589,11.3233686 12.7077655,11.9347803 13.377733,12.49728 C14.4367147,12.130433 15.2363514,11.3967365 15.8198728,10.7853224 C16.1440513,10.4184753 16.4250046,10.0516259 16.6627347,9.66032287 L18.9968158,11.2499982 C18.6078015,11.6413036 18.1971769,11.9836947 17.7649396,12.3016298 C17.0085237,12.8641295 16.0359903,13.4266292 15.0202339,13.622282 C16.1440491,14.2826081 17.440761,14.8206518 18.8887548,15.1874989 C18.629412,15.5788043 18.3916818,15.9456513 18.1539516,16.2635864 C17.7433269,16.8260862 17.3543127,17.4619563 17.1165825,17.7309769 C14.1989823,16.3614103 12.4484227,14.6739111 11.4326662,13.4266268 L11.4326662,17.5597801 L8.5799017,17.5597801 L8.57990168,14.6005433 L8.57990168,10.932064 C8.25572316,10.95652 7.99638252,10.980976 7.71542709,10.980976 L8.42861766,11.8124988 C7.80187326,12.2282603 7.13190574,12.6195632 6.3754921,12.9864127 C5.07878019,13.6467388 3.30661006,14.3070649 1.29670759,14.673912 L1.16703618,14.0380418 C1.08058785,13.6711948 0.994141679,13.3288013 0.929305984,13.133151 C2.70147829,12.8641304 4.51687365,11.8124988 5.61907844,11.1032583 L3.63078858,11.1766287 C3.3498353,11.2010847 3.0904925,11.2010847 2.85276231,11.2010847 L2.52858379,9.61140935 C3.82529571,9.58695337 5.66230153,9.48912702 7.62898093,9.26901831 L7.62898093,8.11956148 C5.55424275,8.38858214 3.8901314,8.65760524 2.67986781,8.9266259 C1.98828769,9.07336423 1.36154544,9.220105 0.821249357,9.3668433 L0,7.06792992 C0.669967491,6.97010356 1.42638331,6.89673318 2.22602006,6.79890926 L2.22602003,2.17662691 L0.821249632,2.17662691 L0.821249632,0.489126455 L11.4758928,0.489126455 L11.4758928,1.05162662 C12.4484262,0.880429876 14.1341502,0.6847796 15.7550406,0.709235573 C17.1598113,0.733691547 18.2620161,1.10054103 18.7158638,1.66304076 C19.1264885,2.17662854 19.0832655,2.83695465 18.6294155,3.64401907 C18.3268496,4.13314844 17.8297766,4.69565063 17.1381987,5.30706233 C17.8081662,5.82065011 18.4349106,6.35869389 18.9968171,6.92119362 C18.6726386,7.28804064 18.1755678,7.77717245 17.7433305,8.24184585 L16.9653006,9.04891117 Z M4.62493245,4.79347543 L7.62897992,4.79347543 L7.62897992,3.98640999 L4.62493245,3.98640999 L4.62493245,4.79347543 Z M4.62493245,2.91032283 L7.62897992,2.91032283 L7.62897992,2.17662698 L4.62493245,2.17662698 L4.62493245,2.91032283 Z M7.62898096,6.48097711 L7.62898096,5.89402042 L4.62493245,5.89402042 L4.62493245,6.62771544 C5.66230155,6.55434505 6.69967064,6.50543311 7.62898096,6.48097711 Z M11.4758893,6.55434505 C12.2755282,6.23640999 13.0319418,5.86956297 13.723522,5.50271349 C13.1400028,5.01358412 12.6645402,4.64673467 12.3187513,4.37771401 L11.7568425,3.98640855 L12.772599,2.78803869 L13.5938484,3.17934414 C14.1125318,3.4483648 14.8257246,3.79075828 15.6037509,4.25543168 C15.9711525,3.93749661 16.2521057,3.64401754 16.4466129,3.37499688 C16.6627304,3.05706181 16.7059557,2.78804115 16.5546716,2.59238843 C16.4033876,2.37227972 16.0143756,2.24999739 15.4956899,2.22554142 L15.4092425,2.22554142 C13.053551,2.22554142 11.1949304,3.1793466 11.1949304,3.1793466 L10.9355876,2.17662945 L9.87660659,2.17662945 L9.87660684,6.40760883 C10.3736799,6.40760883 10.7194688,6.38315286 11.0004221,6.38315286 L11.4326592,6.38315286 L11.4326592,7.87500108 L9.87660659,7.94837146 L9.87660659,9.00000219 C10.7626917,8.87771986 11.6055558,8.70652309 12.3619695,8.53532881 L11.4758893,6.55434505 Z" id="Shape-Copy-7" fill-rule="nonzero"></path>
                </g>
            </g>
        </g>
    </g>
</svg>