<?xml version="1.0" encoding="UTF-8"?>
<svg width="18px" height="19px" viewBox="0 0 18 19" version="1.1" xmlns="http://www.w3.org/2000/svg" xmlns:xlink="http://www.w3.org/1999/xlink">
    <!-- Generator: Sketch 52.3 (67297) - http://www.bohemiancoding.com/sketch -->
    <title>no3</title>
    <desc>Created with Sketch.</desc>
    <g id="Page-1" stroke="none" stroke-width="1" fill="none" fill-rule="evenodd">
        <g id="搜索页01" transform="translate(-15.000000, -483.000000)">
            <g id="分组-5" transform="translate(15.000000, 481.000000)">
                <g id="no3">
                    <polygon id="矩形-copy-2" fill="#FEB74A" points="2.55795385e-13 2 18 2 18 16.8801337 9 21 0 16.8801337"></polygon>
                    <path d="M9.112,4.352 C10.264,4.352 11.176,4.624 11.88,5.184 C12.552,5.744 12.904,6.512 12.904,7.488 C12.904,8.736 12.264,9.584 11.016,10 C11.688,10.208 12.2,10.528 12.552,10.944 C12.936,11.376 13.128,11.936 13.128,12.608 C13.128,13.664 12.76,14.528 12.04,15.2 C11.272,15.872 10.264,16.224 9.048,16.224 C7.88,16.224 6.936,15.92 6.232,15.328 C5.432,14.656 4.984,13.68 4.888,12.4 L6.648,12.4 C6.68,13.168 6.92,13.76 7.4,14.176 C7.816,14.56 8.36,14.752 9.032,14.752 C9.768,14.752 10.36,14.528 10.808,14.112 C11.192,13.728 11.4,13.264 11.4,12.688 C11.4,12.016 11.192,11.52 10.776,11.2 C10.392,10.88 9.816,10.72 9.064,10.72 L8.232,10.72 L8.232,9.408 L9.048,9.408 C9.752,9.408 10.28,9.248 10.632,8.944 C10.984,8.64 11.176,8.192 11.176,7.616 C11.176,7.04 11,6.608 10.68,6.304 C10.328,5.984 9.8,5.84 9.128,5.84 C8.44,5.84 7.896,6.016 7.512,6.368 C7.128,6.72 6.888,7.248 6.824,7.952 L5.112,7.952 C5.208,6.816 5.624,5.936 6.376,5.296 C7.08,4.656 7.992,4.352 9.112,4.352 Z" id="3" fill="#FFFFFF"></path>
                </g>
            </g>
        </g>
    </g>
</svg>