<?xml version="1.0" encoding="UTF-8"?>
<svg width="50px" height="50px" viewBox="0 0 50 50" version="1.1" xmlns="http://www.w3.org/2000/svg" xmlns:xlink="http://www.w3.org/1999/xlink">
    <!-- Generator: Sketch 48.1 (47250) - http://www.bohemiancoding.com/sketch -->
    <title>user_pic_order</title>
    <desc>Created with Sketch.</desc>
    <defs>
        <linearGradient x1="-1.11022302e-14%" y1="50%" x2="100%" y2="50%" id="linearGradient-1">
            <stop stop-color="#FFA213" offset="0%"></stop>
            <stop stop-color="#FF527D" offset="100%"></stop>
        </linearGradient>
        <linearGradient x1="7.46154461%" y1="7.31621677%" x2="94.1124912%" y2="95.5428835%" id="linearGradient-2">
            <stop stop-color="#FF9415" offset="0%"></stop>
            <stop stop-color="#FF2252" offset="100%"></stop>
        </linearGradient>
        <linearGradient x1="9.45517511%" y1="9.70972799%" x2="92.6717434%" y2="94.0759362%" id="linearGradient-3">
            <stop stop-color="#FF901D" offset="0%"></stop>
            <stop stop-color="#FF244C" offset="100%"></stop>
        </linearGradient>
        <path d="M9.33681558,2 C9.89854755,0.817526333 11.103802,0 12.5,0 C13.896198,0 15.1014525,0.817526333 15.6631844,2 L17,2 C18.6568542,2 20,3.34314575 20,5 C20,6.65685425 18.6568542,8 17,8 L8,8 C6.34314575,8 5,6.65685425 5,5 C5,3.34314575 6.34314575,2 8,2 L9.33681558,2 Z" id="path-4"></path>
    </defs>
    <g id="个人中心" stroke="none" stroke-width="1" fill="none" fill-rule="evenodd" transform="translate(-72.000000, -175.000000)">
        <g id="user_pic_order" transform="translate(72.000000, 175.000000)">
            <rect id="Rectangle-3" fill="#F6F6F6" opacity="0.100000001" x="0" y="0" width="50" height="50"></rect>
            <g transform="translate(13.000000, 11.000000)">
                <rect id="Rectangle-28" fill="url(#linearGradient-1)" opacity="0.300000012" x="5" y="11" width="19" height="16" rx="2"></rect>
                <rect id="Rectangle-23-Copy" stroke="url(#linearGradient-2)" stroke-width="1.5" x="0.75" y="4.75" width="23.5" height="22.5" rx="11.25"></rect>
                <g id="Combined-Shape">
                    <use fill="#FFFFFF" fill-rule="evenodd" xlink:href="#path-4"></use>
                    <path stroke="url(#linearGradient-3)" stroke-width="1.5" d="M10.0142611,2.32181924 L9.81085457,2.75 L8,2.75 C6.75735931,2.75 5.75,3.75735931 5.75,5 C5.75,6.24264069 6.75735931,7.25 8,7.25 L17,7.25 C18.2426407,7.25 19.25,6.24264069 19.25,5 C19.25,3.75735931 18.2426407,2.75 17,2.75 L15.1891454,2.75 L14.9857389,2.32181924 C14.5333553,1.36952924 13.5728051,0.75 12.5,0.75 C11.4271949,0.75 10.4666447,1.36952924 10.0142611,2.32181924 Z"></path>
                </g>
                <rect id="Rectangle-26" fill="url(#linearGradient-1)" x="5" y="12" width="15" height="1.5" rx="0.75"></rect>
                <rect id="Rectangle-26-Copy" fill="url(#linearGradient-1)" x="5" y="16" width="15" height="1.5" rx="0.75"></rect>
                <rect id="Rectangle-26-Copy-3" fill="url(#linearGradient-1)" x="5" y="20" width="9" height="1.5" rx="0.75"></rect>
            </g>
        </g>
    </g>
</svg>