<?xml version="1.0" encoding="UTF-8"?>
<svg width="24px" height="24px" viewBox="0 0 24 24" version="1.1" xmlns="http://www.w3.org/2000/svg" xmlns:xlink="http://www.w3.org/1999/xlink">
    <!-- Generator: Sketch 48.1 (47250) - http://www.bohemiancoding.com/sketch -->
    <title>wode_icon_help</title>
    <desc>Created with Sketch.</desc>
    <defs>
        <linearGradient x1="2.62077487%" y1="12.0757512%" x2="100%" y2="90.6075508%" id="linearGradient-1">
            <stop stop-color="#FE10B4" offset="0%"></stop>
            <stop stop-color="#BD52F3" offset="100%"></stop>
        </linearGradient>
    </defs>
    <g id="个人中心" stroke="none" stroke-width="1" fill="none" fill-rule="evenodd" transform="translate(-15.000000, -542.000000)">
        <g id="Group-9" transform="translate(15.000000, 542.000000)" fill-rule="nonzero">
            <g id="wode_icon_help" transform="translate(2.000000, 3.000000)">
                <rect id="Rectangle-path" fill="#000000" opacity="0" x="0" y="0" width="20" height="20"></rect>
                <path d="M9.33333334,4.16666666 C9.15652234,4.16666665 8.98695306,4.23690455 8.8619288,4.3619288 C8.73690455,4.48695306 8.66666665,4.65652234 8.66666666,4.83333334 L8.66666666,16.9166667 C8.66666665,17.0934777 8.73690455,17.2630469 8.8619288,17.3880712 C8.98695306,17.5130955 9.15652234,17.5833333 9.33333334,17.5833333 L16.6666667,17.5833333 C16.8434777,17.5833333 17.0130469,17.5130955 17.1380712,17.3880712 C17.2630955,17.2630469 17.3333333,17.0934777 17.3333333,16.9166667 L17.3333333,4.83333334 C17.3333333,4.65652234 17.2630955,4.48695306 17.1380712,4.3619288 C17.0130469,4.23690455 16.8434777,4.16666665 16.6666667,4.16666666 L9.33333334,4.16666666 Z" id="Shape" fill="url(#linearGradient-1)" opacity="0.200000003"></path>
                <path d="M15.8333333,0 L5.16666666,0 C4.06209716,-6.76353751e-17 3.16666666,0.8954305 3.16666666,2 L3.16666666,2.66666666 C3.16666666,3.0348565 3.4651435,3.33333333 3.83333333,3.33333333 C4.20152317,3.33333333 4.5,3.0348565 4.5,2.66666666 L4.5,2 C4.5,1.63181017 4.79847683,1.33333334 5.16666666,1.33333334 L15.8333333,1.33333334 C16.2015232,1.33333334 16.5,1.63181017 16.5,2 L16.5,15.75 C16.5,16.1181898 16.2015232,16.4166667 15.8333333,16.4166667 L5.16666666,16.4166667 C4.79847683,16.4166667 4.5,16.1181898 4.5,15.75 L4.5,13.98 L4.83333334,13.98 C5.20152316,13.98 5.49999997,13.6815231 5.49999997,13.3133333 C5.49999997,12.9451435 5.20152316,12.6466667 4.83333334,12.6466667 L4.5,12.6466667 L4.5,6 L4.83333334,6 C5.20152317,5.99999999 5.49999999,5.70152316 5.49999999,5.33333333 C5.49999999,4.9651435 5.20152317,4.66666667 4.83333334,4.66666666 L2.83333334,4.66666666 C2.4651435,4.66666666 2.16666667,4.9651435 2.16666667,5.33333333 C2.16666667,5.70152317 2.4651435,6 2.83333334,6 L3.16666666,6 L3.16666666,12.6466667 L2.83333334,12.6466667 C2.46514352,12.6466667 2.16666671,12.9451435 2.16666671,13.3133333 C2.16666671,13.6815231 2.46514352,13.98 2.83333334,13.98 L3.16666666,13.98 L3.16666666,15.75 C3.16666666,16.8545695 4.06209716,17.75 5.16666666,17.75 L15.8333333,17.75 C16.9379028,17.75 17.8333333,16.8545695 17.8333333,15.75 L17.8333333,2 C17.8333333,0.8954305 16.9379028,1.04869017e-15 15.8333333,0 Z" id="Shape" fill="url(#linearGradient-1)"></path>
                <path d="M12.5,5.25 L8.5,5.25 C8.13181017,5.25000001 7.83333335,5.54847684 7.83333335,5.91666667 C7.83333335,6.2848565 8.13181017,6.58333333 8.5,6.58333334 L12.5,6.58333334 C12.676811,6.58333334 12.8463803,6.51309544 12.9714045,6.38807119 C13.0964288,6.26304693 13.1666667,6.09347766 13.1666667,5.91666666 C13.1666667,5.54847683 12.8681898,5.25 12.5,5.25 Z M9.16666666,8.91666666 C8.79847683,8.91666666 8.49999999,9.2151435 8.49999999,9.58333333 C8.49999999,9.95152317 8.79847683,10.25 9.16666666,10.25 L11.8333333,10.25 C12.2015232,10.25 12.5,9.95152317 12.5,9.58333333 C12.5,9.2151435 12.2015232,8.91666666 11.8333333,8.91666666 L9.16666666,8.91666666 Z" id="Shape" fill="url(#linearGradient-1)"></path>
            </g>
        </g>
    </g>
</svg>