<?xml version="1.0" encoding="UTF-8"?>
<svg width="40px" height="32px" viewBox="0 0 40 32" version="1.1" xmlns="http://www.w3.org/2000/svg" xmlns:xlink="http://www.w3.org/1999/xlink">
    <!-- Generator: Sketch 48.1 (47250) - http://www.bohemiancoding.com/sketch -->
    <title>image</title>
    <desc>Created with Sketch.</desc>
    <defs></defs>
    <g id="样式示意" stroke="none" stroke-width="1" fill="none" fill-rule="evenodd" transform="translate(-248.000000, -1045.000000)">
        <g id="image" transform="translate(248.000000, 1045.000000)" fill="#666666" fill-rule="nonzero">
            <path d="M3,3 L3,29 L37,29 L37,3 L3,3 Z M2,0 L38,0 C39.1045695,-2.02906125e-16 40,0.8954305 40,2 L40,30 C40,31.1045695 39.1045695,32 38,32 L2,32 C0.8954305,32 1.3527075e-16,31.1045695 0,30 L0,2 C-1.3527075e-16,0.8954305 0.8954305,2.02906125e-16 2,0 Z" id="Rectangle-2"></path>
            <path d="M24.5,14.5 C21.7385763,14.5 19.5,12.2614237 19.5,9.5 C19.5,6.73857625 21.7385763,4.5 24.5,4.5 C27.2614237,4.5 29.5,6.73857625 29.5,9.5 C29.5,12.2614237 27.2614237,14.5 24.5,14.5 Z M24.5,11.5 C25.6045695,11.5 26.5,10.6045695 26.5,9.5 C26.5,8.3954305 25.6045695,7.5 24.5,7.5 C23.3954305,7.5 22.5,8.3954305 22.5,9.5 C22.5,10.6045695 23.3954305,11.5 24.5,11.5 Z M3.2966943,31.472135 L0.703305702,29.964045 L11.4663468,11.4553704 L21.040627,22.2226412 L28.796085,17.5469083 L39.7339667,26.2575724 L37.8650722,28.6043219 L28.5587878,21.1930224 L20.4550055,26.0787586 L11.9772377,16.5446296 L3.2966943,31.472135 Z" id="Combined-Shape"></path>
        </g>
    </g>
</svg>