<?xml version="1.0" encoding="UTF-8"?>
<svg width="30px" height="30px" viewBox="0 0 30 30" version="1.1" xmlns="http://www.w3.org/2000/svg" xmlns:xlink="http://www.w3.org/1999/xlink">
    <!-- Generator: Sketch 52.2 (67145) - http://www.bohemiancoding.com/sketch -->
    <title>分组 3</title>
    <desc>Created with Sketch.</desc>
    <g id="Page-1" stroke="none" stroke-width="1" fill="none" fill-rule="evenodd">
        <g id="wap-微博，微信-口令购买，点击打开弹窗B" transform="translate(-173.000000, -495.000000)">
            <g id="分组-3" transform="translate(173.000000, 495.000000)">
                <circle id="椭圆形" fill="#000000" opacity="0.400000006" cx="15" cy="15" r="14"></circle>
                <path d="M25.6066113,4.39339804 C19.7487598,-1.46445136 10.2512695,-1.46448066 4.39338866,4.39339804 C-1.46446289,10.2512474 -1.46446289,19.7487635 4.39338866,25.6066129 C10.2512402,31.4644624 19.7487597,31.4644623 25.6066113,25.6066129 C31.4644629,19.7487635 31.4644629,10.2512475 25.6066113,4.39339804 Z M21.5255273,20.2825817 C21.867334,20.6243882 21.867334,21.1837239 21.5255273,21.5255304 C21.1837207,21.867337 20.6243848,21.867337 20.2825781,21.5255304 L15,16.2429542 L9.71742186,21.5255597 C9.37561523,21.8673662 8.81627928,21.8673662 8.47447265,21.5255597 C8.13266601,21.1837532 8.13266601,20.6244175 8.47447265,20.282611 L13.7570508,15.0000055 L8.47444335,9.71742929 C8.13263672,9.37562278 8.13263672,8.81628704 8.47444335,8.47448053 C8.81624999,8.13267402 9.37558593,8.13267402 9.71739257,8.47448053 L15,13.7570567 L20.2825781,8.47448053 C20.6243848,8.13264473 21.1837207,8.13264473 21.5255566,8.47445124 C21.8673633,8.81625774 21.8673633,9.37559349 21.5255566,9.71739999 L16.2429492,15.0000055 L21.5255273,20.2825817 Z" id="形状" fill="#FFFFFF" fill-rule="nonzero"></path>
            </g>
        </g>
    </g>
</svg>