<?xml version="1.0" standalone="no"?><!DOCTYPE svg PUBLIC "-//W3C//DTD SVG 1.1//EN" "http://www.w3.org/Graphics/SVG/1.1/DTD/svg11.dtd"><svg t="1547033335625" class="icon" style="" viewBox="0 0 1024 1024" version="1.1" xmlns="http://www.w3.org/2000/svg" p-id="1113" xmlns:xlink="http://www.w3.org/1999/xlink" width="32" height="32"><defs><style type="text/css"></style></defs><path d="M860.99456 950.5536 178.18112 950.5536c2.40128 2.55488 4.06528 6.0672 5.17632 10.14784-4.77184 31.15008-5.17632 61.86496-5.17632 61.86496L929.28 1022.5664l0-144.07168c0 0-26.17856 0-68.28544 0C841.38496 878.49984 860.99456 950.5536 860.99456 950.5536z" p-id="1114" fill="#1296db"></path><path d="M795.22304 386.78528c-29.17888 0-52.8128 10.58816-70.912 31.75424-18.10432 21.17632-27.15136 48.93696-27.15136 83.28704 0 34.59072 8.84224 62.32064 26.496 83.18976 17.67424 20.864 40.72448 31.30368 69.16096 31.30368 30.53056 0 54.50752-10.00448 71.92064-30.0032 17.41824-20.00384 26.13248-47.98464 26.13248-83.93216 0-36.93568-8.51968-65.4336-25.5744-85.504C848.25088 396.81536 824.8832 386.78528 795.22304 386.78528z" p-id="1115" fill="#1296db"></path><path d="M506.41408 394.9056l-0.92672 0c-1.3568 8.61696-2.88768 15.26784-4.61312 19.94752l-42.84416 118.92224 96.0256 0-43.20768-118.92224C509.4912 411.03872 508.01664 404.38784 506.41408 394.9056z" p-id="1116" fill="#1296db"></path><path d="M929.28 806.46144l0-123.47904-36.18304 0-54.29248-40.25344c-14.0288 4.3008-29.3632 6.46656-45.9776 6.46656-40.62208 0-73.18016-13.35808-97.68448-40.07424s-36.74112-61.49632-36.74112-104.33024c0-46.17216 12.48256-82.92352 37.4784-110.24384 24.99072-27.32544 58.84416-40.99584 101.56032-40.99584 39.77216 0 71.77728 13.3632 96.0256 40.07424 21.28384 23.43424 33.2032 53.0944 35.81952 88.94464L929.28512 86.12864l-68.28544 0L860.99968 14.08 468.37248 14.08 348.86656 14.08 178.18112 14.08l0 72.04864L109.88544 86.12864l0 864.42496c0 0 46.16192-2.01216 68.29056 0l0-72.05376 682.81344 0 0-72.0384L929.28 806.46144zM357.21216 391.21408 246.784 391.21408 246.784 486.8608l102.2976 0 0 32.512L246.784 519.3728l0 125.00992-36.93056 0L209.85344 358.34368l147.35872 0L357.21216 391.21408zM594.67776 644.38272l-29.16864-78.29504L446.40256 566.08768l-27.51488 78.29504-40.81152 0 108.94848-286.03904 39.52128 0 108.93824 286.03904L594.67776 644.38272z" p-id="1117" fill="#1296db"></path><path d="M929.28 514.17088c-2.62656 38.84032-14.84288 70.25664-36.74112 94.19776-5.90848 6.41024-12.25728 12.06784-19.03104 16.99328l55.77216 39.99744L929.28 514.17088z" p-id="1118" fill="#1296db"></path></svg>