<?xml version="1.0" standalone="no"?><!DOCTYPE svg PUBLIC "-//W3C//DTD SVG 1.1//EN" "http://www.w3.org/Graphics/SVG/1.1/DTD/svg11.dtd"><svg t="1547044343141" class="icon" style="" viewBox="0 0 1024 1024" version="1.1" xmlns="http://www.w3.org/2000/svg" p-id="1138" xmlns:xlink="http://www.w3.org/1999/xlink" width="32" height="32"><defs><style type="text/css"></style></defs><path d="M885.376 64 138.688 64C97.408 64 64 97.344 64 138.688l0 746.624C64 926.656 97.408 960 138.688 960l746.688 0C926.592 960 960 926.656 960 885.312L960 138.688C960 97.344 926.592 64 885.376 64zM551.552 819.712 469.568 819.712l0-81.536 81.984 0L551.552 819.712zM686.016 441.024c-12.032 18.24-36.608 45.056-73.792 80.32C585.216 547.008 567.552 568.64 559.424 586.496c-8.192 17.792-12.224 27.776-12.224 62.528L473.408 649.024c0-39.424 4.672-54.976 14.08-79.104 9.408-24.064 30.272-51.776 62.592-82.944l33.856-32.64C594.112 444.928 602.24 435.072 608.512 424.96c11.584-17.92 17.28-36.608 17.28-55.936 0-27.072-8.192-50.432-24.768-70.4C584.64 278.784 557.312 268.8 519.296 268.8c-47.04 0-79.616 17.152-97.6 51.328C411.584 339.136 405.76 366.656 404.352 402.496L330.688 402.496c0-59.52 17.088-107.52 51.136-143.744 34.112-36.288 80.896-54.464 140.352-54.464 54.976 0 99.072 15.488 132.096 46.592C687.424 281.856 704 321.536 704 369.856 704 399.04 697.984 422.784 686.016 441.024z" p-id="1139" fill="#d81e06"></path></svg>