<?xml version="1.0" encoding="UTF-8"?>
<svg width="16px" height="16px" viewBox="0 0 16 16" version="1.1" xmlns="http://www.w3.org/2000/svg" xmlns:xlink="http://www.w3.org/1999/xlink">
    <!-- Generator: Sketch 52.2 (67145) - http://www.bohemiancoding.com/sketch -->
    <title>矩形</title>
    <desc>Created with Sketch.</desc>
    <g id="Page-1" stroke="none" stroke-width="1" fill="none" fill-rule="evenodd">
        <g id="iOS/个人中心" transform="translate(-76.000000, -140.000000)" fill-rule="nonzero">
            <g id="积分" transform="translate(10.000000, 125.000000)">
                <g id="帮助" transform="translate(66.000000, 15.000000)">
                    <rect id="矩形" fill="#000000" opacity="0" x="0" y="0" width="16" height="16"></rect>
                    <path d="M8.08044945,14.0083104 C4.7563352,14.0525524 2.0253708,11.3933313 1.98079302,8.07025636 C1.93667892,4.74615809 4.59521244,2.01466605 7.9193107,1.97039206 C11.2434569,1.92613406 13.9745652,4.58535513 14.019191,7.90844606 C14.0630812,11.2325763 11.4042279,13.9640524 8.08044945,14.0083104 Z M7.99848903,11.5305823 C8.38955189,11.5305823 8.70628114,11.2131975 8.70628114,10.8224704 C8.70628114,10.4311037 8.38955189,10.1143585 7.99848903,10.1143585 C7.60742617,10.1143585 7.29004136,10.4311197 7.29004136,10.8224704 C7.29004136,11.2131975 7.60742617,11.5305823 7.99848903,11.5305823 Z M7.99848903,4.09541531 C6.68082241,4.09541531 5.61381784,4.80146461 5.53515117,6.07453747 C5.52528586,6.12156159 5.52008939,6.16996077 5.52008939,6.21975102 C5.52008939,6.61046211 5.83713844,6.92786292 6.2282013,6.92786292 C6.61926416,6.92786292 6.93599341,6.61046213 6.93599341,6.21975102 C6.93599341,5.63299683 7.41175084,5.15759116 7.99848903,5.15759116 C8.58489145,5.15759116 9.06031311,5.63299683 9.06031311,6.21975102 C9.09384237,6.96105641 8.35570283,7.29263959 7.99848903,7.63597481 C7.16625328,8.33094362 7.29004136,8.6995577 7.29004136,8.69816664 C7.29004136,9.08886175 7.60742617,9.40627855 7.99848903,9.40627855 C8.38680175,9.40627855 8.70143644,9.09298695 8.70557763,8.70574552 C9.11426053,8.14700434 9.76222122,7.65327509 9.76877678,7.63599081 C10.4436952,7.07170141 10.4768727,6.21976702 10.4768727,6.21976702 C10.4768727,4.85055133 9.36736892,4.09541531 7.99848903,4.09541531 Z" id="形状" fill="#D3B983"></path>
                </g>
            </g>
        </g>
    </g>
</svg>