<?xml version="1.0" encoding="UTF-8"?>
<svg width="14px" height="14px" viewBox="0 0 14 14" version="1.1" xmlns="http://www.w3.org/2000/svg" xmlns:xlink="http://www.w3.org/1999/xlink">
    <!-- Generator: Sketch 52.2 (67145) - http://www.bohemiancoding.com/sketch -->
    <title>矩形</title>
    <desc>Created with Sketch.</desc>
    <g id="Page-1" stroke="none" stroke-width="1" fill="none" fill-rule="evenodd">
        <g id="三端统一-横排" transform="translate(-138.000000, -159.000000)">
            <g id="疯抢榜ui-kit" transform="translate(0.000000, 147.000000)">
                <g id="淘" transform="translate(138.000000, 12.000000)">
                    <rect id="矩形" fill="#000000" opacity="0" x="0" y="0" width="14" height="14"></rect>
                    <path d="M11.375,0.875 L2.625,0.875 C1.659,0.875 0.875,1.659 0.875,2.625 L0.875,11.375 C0.875,12.341 1.659,13.125 2.625,13.125 L11.375,13.125 C12.341,13.125 13.125,12.341 13.125,11.375 L13.125,2.625 C13.125,1.659 12.341,0.875 11.375,0.875 Z M3.57175,2.7825 C4.092375,2.7825 4.514125,3.194625 4.514125,3.702125 C4.514125,4.209625 4.092375,4.62 3.57175,4.62 C3.05025,4.62 2.6285,4.20875 2.6285,3.70125 C2.6285,3.19375 3.05025,2.7825 3.57175,2.7825 Z M4.358375,8.3055 C4.109,9.14375 4.172,8.833125 3.18325,11.16675 L1.75,10.196375 C1.75,10.196375 3.346875,8.617 3.675875,7.895125 C4.022375,7.13475 3.292625,6.727875 3.292625,6.727875 L2.19625,5.985 L2.788625,4.991875 C3.61725,5.6595 3.6785,5.7155 4.235875,6.323625 C4.668125,6.79525 4.613875,7.448875 4.358375,8.3055 Z M12.142375,9.39225 C11.864125,12.240375 8.456,11.181625 8.456,11.181625 L8.6415,10.367875 L9.429,10.551625 C10.889375,10.65225 10.74675,9.26625 10.74675,9.26625 L10.74675,5.236 C10.759875,3.707375 9.422,3.546375 7.025375,4.48 L7.583625,4.6445 C7.534625,4.823875 7.3535,5.103 7.1225,5.408375 L10.331125,5.408375 L10.331125,6.1145 L8.525125,6.1145 L8.525125,6.995625 L10.32325,6.995625 L10.32325,7.70175 L8.525125,7.70175 L8.525125,9.1805 C8.79375,9.083375 9.04575,8.950375 9.2645,8.775375 L9.104375,8.12875 L9.954,7.842625 L10.660125,9.723875 L9.615375,10.194625 L9.429875,9.44475 C8.964375,9.834125 7.994,10.395875 6.3,10.346 C4.491375,10.39675 4.95425,8.12875 4.95425,8.12875 L5.0015,8.10425 L6.272,8.10425 C6.26325,8.39475 6.153,8.87075 6.304375,9.128875 C6.428625,9.340625 6.7445,9.377375 6.948375,9.38875 C6.971125,9.3905 6.99475,9.391375 7.0175,9.39225 L7.0175,7.700875 L5.173875,7.700875 L5.173875,6.99475 L7.0175,6.99475 L7.0175,6.113625 L6.545,6.113625 C6.131125,6.591375 5.751375,6.986875 5.751375,6.986875 L5.19575,6.458375 C5.590375,6.006 5.985875,5.291125 6.229125,4.8125 C6.031375,4.900875 5.8275,4.9945 5.6175,5.09425 C5.410125,5.376875 5.17475,5.66825 4.909625,5.954375 C4.920125,5.971875 4.0005,5.39525 4.0005,5.39525 C4.951625,4.51325 5.4845,2.62325 5.4845,2.62325 L6.80575,3.026625 C6.80575,3.026625 6.696375,3.304875 6.46975,3.733625 C11.764375,2.104375 12.0715,4.732 12.0715,4.732 C12.0715,4.732 12.420625,6.545 12.142375,9.39225 Z" id="形状" fill="#F57A22" fill-rule="nonzero"></path>
                </g>
            </g>
        </g>
    </g>
</svg>