<?xml version="1.0" encoding="UTF-8"?>
<svg width="18px" height="29px" viewBox="0 0 18 29" version="1.1" xmlns="http://www.w3.org/2000/svg" xmlns:xlink="http://www.w3.org/1999/xlink">
    <!-- Generator: Sketch 52.3 (67297) - http://www.bohemiancoding.com/sketch -->
    <title>no1</title>
    <desc>Created with Sketch.</desc>
    <g id="Page-1" stroke="none" stroke-width="1" fill="none" fill-rule="evenodd">
        <g id="搜索页01" transform="translate(-15.000000, -373.000000)">
            <g id="分组-3" transform="translate(15.000000, 373.000000)">
                <g id="no1">
                    <polygon id="矩形" fill="#FE4A65" points="2.55795385e-13 10 18 10 18 24.8801337 9 29 0 24.8801337"></polygon>
                    <path d="M9.448,12.576 L10.76,12.576 L10.76,24 L9.016,24 L9.016,14.672 C8.328,15.328 7.448,15.808 6.392,16.112 L6.392,14.384 C6.904,14.256 7.432,14.032 8.008,13.712 C8.584,13.36 9.064,12.992 9.448,12.576 Z" id="1-copy" fill="#FFFFFF"></path>
                    <g id="第一">
                        <g id="分组">
                            <path d="M16.5499392,2.17915452 C16.0578372,2.1983965 15.6072904,2.42769679 15.4104496,2.75801749 C15.1895504,3.12682216 15.2967193,3.50524781 15.5919806,3.77623907 L15.4520049,4.20758017 C15.1654921,5.08790087 14.0959903,5.70845481 12.8602673,5.70845481 C11.4714459,5.70845481 10.3166464,4.92594752 10.2051033,3.91093294 L10.0716889,2.69227405 C10.7125152,2.37959184 11.090887,1.80072886 10.9071689,1.17215743 C10.7496962,0.631778426 10.1526124,0.195626822 9.41336574,0.0833819242 C8.14483597,-0.112244898 7.0272175,0.594897959 7.0272175,1.49125364 C7.0272175,1.99314869 7.37934386,2.43571429 7.90862697,2.69227405 L7.77521264,3.91093294 C7.6636695,4.92594752 6.50886999,5.70845481 5.1200486,5.70845481 C3.88651276,5.70845481 2.8126367,5.08629738 2.52831106,4.20758017 L2.38833536,3.77623907 C2.6835966,3.50685131 2.79076549,3.12842566 2.56986634,2.75801749 C2.37302552,2.42769679 1.92247874,2.196793 1.43037667,2.17915452 C0.531470231,2.14548105 -0.120291616,2.72113703 0.0218712029,3.33046647 C0.102794654,3.66720117 0.404617254,3.93338192 0.800486027,4.06166181 L1.99465371,10.2431487 C1.99465371,10.2431487 4.92758202,10.993586 9.0218712,10.993586 C13.1161604,10.993586 15.981288,10.2431487 15.981288,10.2431487 L15.981288,10.2399417 L17.1754557,4.06166181 C17.5713244,3.93338192 17.8753341,3.66720117 17.9540705,3.33046647 C18.1006075,2.72274052 17.4488457,2.14708455 16.5499392,2.17915452 Z" id="路径" fill="#F9C85D"></path>
                            <path d="M0.00656136087,3.15889213 C0.00656136087,3.70247813 0.608019441,4.14504373 1.35164034,4.14504373 C2.09307412,4.14504373 2.69671932,3.70408163 2.69671932,3.15889213 C2.69671932,2.61530612 2.09526124,2.17274052 1.35164034,2.17274052 C0.608019441,2.17274052 0.00656136087,2.61370262 0.00656136087,3.15889213 Z" id="路径" fill="#F9C85D"></path>
                            <path d="M16.5499392,2.17915452 C16.0578372,2.1983965 15.6072904,2.42769679 15.4104496,2.75801749 C15.1895504,3.12682216 15.2967193,3.50524781 15.5919806,3.77623907 L15.4520049,4.20758017 C15.1654921,5.08790087 14.0959903,5.70845481 12.8602673,5.70845481 C11.4714459,5.70845481 10.3166464,4.92594752 10.2051033,3.91093294 L10.0716889,2.69227405 C10.7125152,2.37959184 11.090887,1.80072886 10.9071689,1.17215743 C10.7496962,0.631778426 10.1526124,0.195626822 9.41336574,0.0833819242 C9.2690158,0.0609329446 9.12685298,0.0529154519 8.98687728,0.0529154519 L8.98687728,10.9951895 C13.0746051,10.9951895 15.981288,10.2463557 15.981288,10.2463557 L15.981288,10.2431487 L17.1754557,4.0648688 C17.5713244,3.93658892 17.8753341,3.67040816 17.9540705,3.33367347 C18.1006075,2.72274052 17.4488457,2.14708455 16.5499392,2.17915452 Z" id="路径" fill="#FFB103"></path>
                            <path d="M15.2923451,3.15889213 C15.2923451,3.70247813 15.8938032,4.14344023 16.6352369,4.14344023 C17.3766707,4.14344023 17.9781288,3.70247813 17.9781288,3.15889213 C17.9781288,2.61530612 17.3766707,2.17434402 16.6352369,2.17434402 C15.8938032,2.17434402 15.2923451,2.61530612 15.2923451,3.15889213 Z M7.00315917,1.46399417 C7.00315917,2.26895044 7.89331713,2.91997085 8.9890644,2.91997085 C10.0869988,2.91997085 10.9749696,2.26734694 10.9749696,1.46399417 C10.9749696,0.944460641 10.5965978,0.463411079 9.98201701,0.203644315 C9.36746026,-0.0561240547 8.61066852,-0.0561240547 7.99611178,0.203644317 C7.38135602,0.463223469 7.00267801,0.943876967 7.00315918,1.46399417 Z" id="形状" fill="#F9C85D" fill-rule="nonzero"></path>
                            <path d="M2.32272175,2.48061224 C2.16524909,3.0819242 1.4872418,3.60306122 0.518347509,3.92696793 C0.74799514,4.06166181 1.0345079,4.14504373 1.35164034,4.14504373 C2.09307412,4.14504373 2.69671932,3.70408163 2.69671932,3.15889213 C2.6945322,2.89591837 2.55018226,2.65699708 2.32272175,2.48061224 Z M17.6106926,2.48862974 C17.4269745,3.0819242 16.7402187,3.59183673 15.7691373,3.90612245 C16.0031592,4.05204082 16.3027947,4.14504373 16.6374241,4.14504373 C17.3788578,4.14504373 17.9803159,3.70568513 17.9803159,3.16049563 C17.9759417,2.89912536 17.835966,2.66341108 17.6106926,2.48862974 Z M10.3735115,0.420116618 C10.4150668,0.508309038 10.4391252,0.599708455 10.4391252,0.694314869 C10.4391252,1.37900875 9.27339004,1.93542274 7.836452,1.93542274 C7.57618469,1.93542274 7.32466586,1.91618076 7.08845687,1.88250729 C7.33341434,2.48221574 8.09234508,2.91836735 8.99125152,2.91836735 C10.0869988,2.91836735 10.9771567,2.26574344 10.9771567,1.46239067 C10.9771567,1.05349854 10.745322,0.683090379 10.3735115,0.420116618 Z" id="形状" fill="#FFB103" fill-rule="nonzero"></path>
                            <path d="M0.67582017,2.73075802 C0.702065614,2.76603499 0.787363305,2.77244898 0.89890644,2.7483965 C1.01044957,2.72434402 1.12855407,2.67463557 1.21166464,2.61530612 C1.29477521,2.55758017 1.32976914,2.49985423 1.30133657,2.46457726 C1.27509113,2.42930029 1.18979344,2.4228863 1.0782503,2.44693878 C0.966707169,2.47099125 0.848602673,2.52069971 0.765492102,2.58002915 C0.682381531,2.6393586 0.647387606,2.69708455 0.67582017,2.73075802 Z M16.8495747,2.69548105 C16.9611179,2.74358601 17.0792224,2.76763848 17.1601458,2.76122449 C17.2388821,2.7548105 17.2695018,2.71793003 17.236695,2.66341108 C17.2038882,2.61049563 17.1142163,2.54795918 17.0026731,2.49985423 C16.89113,2.45174927 16.7730255,2.42769679 16.6921021,2.43411079 C16.6133657,2.44052478 16.5827461,2.47740525 16.6155529,2.5319242 C16.6505468,2.58644315 16.7380316,2.64897959 16.8495747,2.69548105 Z M8.20170109,0.442565598 C8.20170109,0.521137026 8.53851762,0.583673469 8.95407047,0.583673469 C9.36962333,0.583673469 9.70643985,0.521137026 9.70643985,0.442565598 C9.70643985,0.363994169 9.36962333,0.301457726 8.95407047,0.301457726 C8.53851762,0.301457726 8.20170109,0.363994169 8.20170109,0.442565598 Z" id="形状" fill="#F7EAD0" fill-rule="nonzero"></path>
                        </g>
                    </g>
                </g>
            </g>
        </g>
    </g>
</svg>