<?xml version="1.0" standalone="no"?><!DOCTYPE svg PUBLIC "-//W3C//DTD SVG 1.1//EN" "http://www.w3.org/Graphics/SVG/1.1/DTD/svg11.dtd"><svg t="1561902090901" class="icon" viewBox="0 0 1024 1024" version="1.1" xmlns="http://www.w3.org/2000/svg" p-id="3326" width="50" height="50" xmlns:xlink="http://www.w3.org/1999/xlink"><defs><style type="text/css"></style></defs><path d="M792.064 176.128h-83.968c0-30.72-25.088-55.808-55.808-55.808h-19.456c-24.064-33.28-68.608-55.808-120.32-55.808s-96.256 22.528-120.32 55.808h-19.456c-30.72 0-55.808 25.088-55.808 55.808h-83.968c-61.952 0-111.616 50.176-111.616 112.128v560.128c0 61.952 50.176 112.128 111.616 112.128h559.616c61.952 0 111.616-50.176 111.616-112.128V287.744c-0.512-61.44-50.688-111.616-112.128-111.616z m-390.656 0h33.28c0-30.72 34.816-55.808 77.824-55.808 43.008 0 77.824 25.088 77.824 55.808h33.28c15.872 0 29.184 12.8 29.184 29.184v53.76c0 15.872-12.8 29.184-29.184 29.184h-221.696c-15.872 0-29.184-12.8-29.184-29.184V205.312c-0.512-16.384 12.288-29.184 28.672-29.184z m446.464 671.744c0 30.72-25.088 55.808-56.32 55.808h-559.104c-30.72 0-55.808-25.088-55.808-55.808V288.256c0-30.72 25.088-55.808 55.808-55.808h83.968v55.808c0 30.72 25.088 55.808 55.808 55.808h279.552c30.72 0 55.808-25.088 55.808-55.808v-55.808h83.968c30.72 0 55.808 25.088 55.808 55.808v559.616h0.512z" fill="#DC5E10" p-id="3327"></path><path d="M663.04 679.424h-107.52v-35.84h107.52c16.896 0 30.72-13.824 30.72-30.72s-13.824-30.72-30.72-30.72h-82.944l94.208-135.168c9.728-13.824 6.144-33.28-7.68-43.008-13.824-9.728-32.768-6.656-42.496 7.68l-102.912 147.456-102.912-147.456c-9.728-13.824-28.672-17.408-42.496-7.68s-17.408 29.184-7.68 43.008l94.208 135.168h-82.944c-16.896 0-30.72 13.824-30.72 30.72s13.824 30.72 30.72 30.72h109.568v35.84h-109.568c-16.896 0-30.72 13.824-30.72 30.72s13.824 30.72 30.72 30.72h109.568v62.464c0 18.432 14.848 33.28 33.28 33.28s33.28-14.848 33.28-33.28v-62.464h107.52c16.896 0 30.72-13.824 30.72-30.72-0.512-16.896-13.824-30.72-30.72-30.72z" fill="#E88C0E" p-id="3328"></path></svg>