<?xml version="1.0" standalone="no"?><!DOCTYPE svg PUBLIC "-//W3C//DTD SVG 1.1//EN" "http://www.w3.org/Graphics/SVG/1.1/DTD/svg11.dtd"><svg t="1566537709631" class="icon" viewBox="0 0 5240 1024" version="1.1" xmlns="http://www.w3.org/2000/svg" p-id="8194" xmlns:xlink="http://www.w3.org/1999/xlink" width="1023.4375" height="200"><defs><style type="text/css"></style></defs><path d="M1949.968 272.544h-37.808v163.84h37.808c84 8.416 124.96-18.912 122.88-81.92 2.064-63.024-38.896-90.288-122.88-81.92zM2725.68 420.624c-44.112 0-67.248 28.352-69.328 85.072h141.776c0.016-56.704-24.144-85.072-72.448-85.072z" p-id="8195" fill="#2c2c2c"></path><path d="M5089.312 16H156.112a136.064 136.064 0 0 0-136.064 136.064v719.872A136.064 136.064 0 0 0 156.112 1008h4933.2a136.064 136.064 0 0 0 136.064-136.064V152.064A136.064 136.064 0 0 0 5089.312 16zM430.416 807.248c-23.392 0-43.68-22.016-60.88-66.16l-203.44-524.32h157.376l137.712 359.68 227.936-359.68h158.56L507.52 741.84c-28 43.664-53.712 65.408-77.104 65.408z m370.752-8.848l82.272-581.632h144.896L946.08 798.4h-144.912z m893.456-363.792c-9.296 65.536-39.424 118.768-90.416 159.648-49.024 38.8-105.552 58.112-169.776 58.112H1190.864L1170.192 798.4h-144.896l41.92-296.032h402.336a81.52 81.52 0 0 0 52.832-18.784c15.36-12.56 24.464-29.232 27.456-49.856 2.864-20.608-1.552-37.04-13.52-49.008-11.84-11.904-27.696-17.872-47.552-17.872h-402.4l116.992-150.064h293.04c63.824 0 114.784 19.36 152.912 58.048 39.472 40.928 54.592 94.144 45.312 159.776z m308.896 99.44h-91.36V757.76h-122.88V174.864h179.6c159.616-2.064 238.368 57.792 236.32 179.6-4.256 113.424-71.456 173.28-201.68 179.584z m499.728-78.768h-53.568c-29.44 6.304-49.376 15.76-59.872 28.352-6.304 14.72-11.568 34.656-15.744 59.872V757.76h-119.728V433.232v-28.352c-2.112-23.088-3.152-40.96-3.152-53.568h110.288v75.632h3.152c23.088-56.72 69.328-82.96 138.64-78.768v107.104z m222.432 233.152c39.872 2.112 65.072-14.672 75.616-50.4h110.272c-10.528 84.032-72.464 126.032-185.888 126.032-130.272 2.064-194.32-67.2-192.208-207.952 6.304-136.512 70.352-207.952 192.208-214.256 83.984 0 141.776 31.504 173.296 94.528a181.664 181.664 0 0 1 22.048 72.464c2.064 25.216 3.152 51.504 3.152 78.768h-267.808c-2.112 69.312 20.96 102.944 69.312 100.816z m909.312 69.328h-122.88V515.152c0-63.008-24.176-94.528-72.464-94.528-42.048 4.24-66.176 35.744-72.464 94.528V757.76h-119.728V515.152c-2.112-63.008-26.288-94.528-72.464-94.528-46.24 4.24-70.4 35.744-72.464 94.528V757.76h-122.88V351.312h119.728v50.416h3.152c27.28-39.872 68.24-59.856 122.88-59.856 65.088 6.304 108.16 31.504 129.184 75.616 33.568-52.48 79.792-77.68 138.64-75.616 60.896 6.304 103.984 31.504 129.184 75.616 8.368 21.008 12.608 53.568 12.608 97.664V757.76z m203.536 0h-122.88V351.312h122.88V757.76z m3.152-478.912h-129.184v-103.984h129.184v103.984z m468.208 478.912h-119.728l-6.304-50.416c-27.328 37.808-68.288 56.72-122.88 56.72-73.552-6.304-118.688-34.672-135.488-85.072-4.24-16.784-6.304-37.808-6.304-63.008V351.312h119.728v245.76c2.064 60.944 26.24 91.36 72.464 91.36 46.176-4.176 70.352-34.656 72.464-91.36v-245.76h122.88v333.984c0 8.416 1.024 20 3.152 34.656l0.016 37.808z m739.168 0h-122.88V515.152c0-63.008-24.176-94.528-72.464-94.528-42.048 4.24-66.176 35.744-72.464 94.528V757.76h-119.728V515.152c-2.112-63.008-26.288-94.528-72.464-94.528-46.24 4.24-70.4 35.744-72.464 94.528V757.76h-122.88V351.312h119.728v50.416h3.152c27.28-39.872 68.24-59.856 122.88-59.856 65.088 6.304 108.16 31.504 129.184 75.616 33.568-52.48 79.792-77.68 138.64-75.616 60.896 6.304 103.968 31.504 129.168 75.616 8.368 21.008 12.608 53.568 12.608 97.664V757.76z" p-id="8196" fill="#2c2c2c"></path></svg>