<?xml version="1.0" encoding="UTF-8"?>
<svg width="24px" height="24px" viewBox="0 0 24 24" version="1.1" xmlns="http://www.w3.org/2000/svg" xmlns:xlink="http://www.w3.org/1999/xlink">
    <!-- Generator: Sketch 51.2 (57519) - http://www.bohemiancoding.com/sketch -->
    <title>wode_setting_change</title>
    <desc>Created with Sketch.</desc>
    <defs>
        <linearGradient x1="13.7023747%" y1="89.3198928%" x2="71.8910465%" y2="9.61394538%" id="linearGradient-1">
            <stop stop-color="#2BE7CE" offset="0%"></stop>
            <stop stop-color="#09D1A9" offset="100%"></stop>
        </linearGradient>
    </defs>
    <g id="Page-1" stroke="none" stroke-width="1" fill="none" fill-rule="evenodd">
        <g id="设置" transform="translate(-15.000000, -127.000000)" fill-rule="nonzero">
            <g id="Group-2" transform="translate(15.000000, 127.000000)">
                <g id="wode_setting_change">
                    <rect id="Rectangle-path" fill="#000000" opacity="0" x="0" y="0" width="24" height="24"></rect>
                    <rect id="Rectangle-2" fill="url(#linearGradient-1)" opacity="0.300000012" x="10" y="13" width="10" height="8" rx="3"></rect>
                    <path d="M17.0625,9.75 L17.0625,8.0625 C17.0625,5.25 14.8125,3 12,3 C9.1875,3 6.9375,5.25 6.9375,8.0625 L6.9375,9.75 C5.3625,9.75 4.125,10.9875 4.125,12.5625 L4.125,18.1875 C4.125,19.7625 5.3625,21 6.9375,21 L17.0625,21 C18.6375,21 19.875,19.7625 19.875,18.1875 L19.875,12.5625 C19.875,10.9875 18.6375,9.75 17.0625,9.75 Z M8.0625,8.0625 C8.0625,5.86875 9.80625,4.125 12,4.125 C14.19375,4.125 15.9375,5.86875 15.9375,8.0625 L15.9375,9.75 L8.0625,9.75 L8.0625,8.0625 Z M18.75,18.1875 C18.75,19.14375 18.01875,19.875 17.0625,19.875 L6.9375,19.875 C6.0375,19.875 5.25,19.14375 5.25,18.1875 L5.25,12.5625 C5.25,11.60625 6.0375,10.875 6.9375,10.875 L17.0625,10.875 C18.01875,10.875 18.75,11.60625 18.75,12.5625 L18.75,18.1875 Z" id="Shape" fill="url(#linearGradient-1)"></path>
                    <path d="M13.6875,14.25 C13.6875,14.98125 13.2375,15.6 12.5625,15.825 L12.5625,17.625 C12.5625,17.90625 12.28125,18.1875 12,18.1875 C11.71875,18.1875 11.4375,17.90625 11.4375,17.625 L11.4375,15.825 C10.7625,15.6 10.3125,14.98125 10.3125,14.25 C10.3125,13.29375 11.04375,12.5625 12,12.5625 C12.95625,12.5625 13.6875,13.29375 13.6875,14.25 Z" id="Shape" fill="url(#linearGradient-1)"></path>
                </g>
            </g>
        </g>
    </g>
</svg>