<?xml version="1.0" encoding="UTF-8"?>
<svg width="24px" height="24px" viewBox="0 0 24 24" version="1.1" xmlns="http://www.w3.org/2000/svg" xmlns:xlink="http://www.w3.org/1999/xlink">
    <!-- Generator: Sketch 51.2 (57519) - http://www.bohemiancoding.com/sketch -->
    <title>wode_setting_download</title>
    <desc>Created with Sketch.</desc>
    <defs>
        <linearGradient x1="13.5808426%" y1="5.73738681%" x2="85.0151567%" y2="86.4725898%" id="linearGradient-1">
            <stop stop-color="#D4BEFF" offset="0%"></stop>
            <stop stop-color="#8258FF" offset="100%"></stop>
        </linearGradient>
    </defs>
    <g id="Page-1" stroke="none" stroke-width="1" fill="none" fill-rule="evenodd">
        <g id="设置" transform="translate(-15.000000, -227.000000)" fill-rule="nonzero">
            <g id="Group-4" transform="translate(15.000000, 227.000000)">
                <g id="wode_setting_download" transform="translate(3.000000, 3.000000)">
                    <rect id="Rectangle-path" fill="#000000" opacity="0" x="0" y="0" width="18" height="18"></rect>
                    <circle id="Oval" fill="url(#linearGradient-1)" opacity="0.300000012" cx="11" cy="11" r="5"></circle>
                    <path d="M8.98769531,1.14082031 C4.65292969,1.14082031 1.125,4.66875 1.125,9.00351563 C1.125,13.3400391 4.65292969,16.8662109 8.98769531,16.8662109 C13.3242187,16.8662109 16.8503906,13.3382812 16.8503906,9.00351563 C16.8521484,4.66875 13.3242187,1.14082031 8.98769531,1.14082031 Z M8.98769531,15.9205078 C5.17324219,15.9205078 2.07070313,12.8179687 2.07070313,9.00351562 C2.07070313,5.1890625 5.17324219,2.08652344 8.98769531,2.08652344 C12.8021484,2.08652344 15.9046875,5.1890625 15.9046875,9.00351562 C15.9046875,12.8179687 12.8021484,15.9205078 8.98769531,15.9205078 Z" id="Shape" fill="url(#linearGradient-1)"></path>
                    <path d="M12.4875,8.6765625 L9.48515625,11.7 L9.46933594,5.62324219 C9.46933594,5.36308594 9.25664062,5.15039063 8.99648437,5.15039063 L8.99472656,5.15039063 C8.7328125,5.15039063 8.521875,5.36308594 8.521875,5.625 L8.53769531,11.7369141 L5.47910156,8.70117187 C5.29453125,8.51660156 4.99394531,8.51835937 4.809375,8.70292969 C4.62480469,8.88925781 4.6265625,9.18808594 4.81113281,9.37265625 L8.6625,13.1976562 C8.75566406,13.2890625 8.87519531,13.3347656 8.99648437,13.3347656 L9.01582031,13.3347656 C9.1828125,13.3347656 9.32871094,13.246875 9.41308594,13.1150391 L13.1589844,9.34453125 C13.3435547,9.15820312 13.3417969,8.859375 13.1572266,8.67480469 C12.9708984,8.49023437 12.6720703,8.49199219 12.4875,8.6765625 Z" id="Shape" fill="url(#linearGradient-1)"></path>
                    <path d="M8.53242187,4.2046875 C8.53242187,4.46583621 8.74412473,4.67753906 9.00527344,4.67753906 C9.26642214,4.67753906 9.478125,4.46583621 9.478125,4.2046875 C9.478125,3.94353879 9.26642214,3.73183594 9.00527344,3.73183594 C8.74412473,3.73183594 8.53242187,3.94353879 8.53242187,4.2046875 Z" id="Shape" fill="url(#linearGradient-1)"></path>
                </g>
            </g>
        </g>
    </g>
</svg>