<?xml version="1.0" encoding="UTF-8"?>
<svg width="24px" height="24px" viewBox="0 0 24 24" version="1.1" xmlns="http://www.w3.org/2000/svg" xmlns:xlink="http://www.w3.org/1999/xlink">
    <!-- Generator: Sketch 48.1 (47250) - http://www.bohemiancoding.com/sketch -->
    <title>wode_icon_like</title>
    <desc>Created with Sketch.</desc>
    <defs>
        <linearGradient x1="-1.11022302e-14%" y1="50%" x2="100%" y2="50%" id="linearGradient-1">
            <stop stop-color="#FFA213" offset="0%"></stop>
            <stop stop-color="#FF527D" offset="100%"></stop>
        </linearGradient>
        <linearGradient x1="7.46154461%" y1="7.31621677%" x2="94.1124912%" y2="95.5428835%" id="linearGradient-2">
            <stop stop-color="#FF9415" offset="0%"></stop>
            <stop stop-color="#FF2252" offset="100%"></stop>
        </linearGradient>
    </defs>
    <g id="个人中心" stroke="none" stroke-width="1" fill="none" fill-rule="evenodd" transform="translate(-15.000000, -283.000000)">
        <g id="Group-14" transform="translate(15.000000, 283.000000)" fill-rule="nonzero">
            <g id="wode_icon_like" transform="translate(2.000000, 2.000000)">
                <path d="M18.0209118,9.90151678 L13.7369364,9.28397547 L11.8072447,5.38593834 C11.6914432,5.15435535 11.4212864,5 11.1511296,5 C10.8809727,5 10.6493897,5.15435535 10.4950144,5.42451219 L8.64247041,9.36120311 L4.35849494,9.97866447 C4.08833811,10.0172383 3.85675512,10.2102475 3.77958744,10.4804043 C3.70237979,10.7505611 3.77958744,11.020718 3.97253662,11.2136871 L7.09871709,14.2626599 L6.51976961,18.5852092 C6.48119576,18.8553461 6.59697727,19.1255229 6.78990647,19.2799582 C6.90570795,19.3570859 7.0600633,19.4343136 7.21443864,19.4343136 C7.33022014,19.4343136 7.44602162,19.3956598 7.56180313,19.3570859 L11.2282573,17.3115928 L14.8561376,19.3185321 C14.9719191,19.3570859 15.0877205,19.3956598 15.2035021,19.3956598 C15.5894604,19.3956598 15.898211,19.0869491 15.898211,18.6623969 L15.898211,18.5080416 L15.3193235,14.2240661 L18.4068702,11.1365195 C18.5997994,10.9435103 18.677027,10.6733535 18.5997994,10.4031966 C18.4840778,10.1330198 18.2910687,9.94009062 18.0209118,9.90151678 Z" id="Shape" fill="url(#linearGradient-1)" opacity="0.300000012"></path>
                <path d="M4.91154205,18.801422 L10.0316229,15.9449591 L10.2746821,16.0794192 L15.0576919,18.7350053 C15.0578125,18.7350455 15.0578125,18.7350455 15.0579331,18.7350856 C15.1620392,18.7697517 15.2058552,18.7834301 15.2539124,18.7954351 C15.3025549,18.8075863 15.3388013,18.8128687 15.3657412,18.8128687 C15.6107709,18.8128687 15.7977459,18.6187174 15.7977459,18.329141 L15.8022493,18.1890174 L14.9924666,12.1963349 L15.167571,12.0212304 L19.3096757,7.87912583 C19.4455468,7.74319835 19.4930229,7.56685182 19.4625167,7.44565901 C19.3620798,7.21116734 19.2307645,7.09300023 19.0748351,7.07073615 L19.0741716,7.07064095 L13.0667434,6.20466143 L12.9501334,5.96910546 L10.3621986,0.741387767 C10.2953677,0.607737511 10.110664,0.5 9.92917628,0.5 C9.76037386,0.5 9.60762992,0.599604247 9.50135815,0.782412247 L6.90140311,6.30736577 L6.6349492,6.34577051 L0.887016882,7.17423563 C0.713063279,7.19907328 0.567950649,7.3234632 0.520446375,7.48977122 C0.468817127,7.6704268 0.516288915,7.84675059 0.64765539,7.97818639 L5.02147599,12.2439862 L4.9881325,12.492936 L4.21083502,18.2962678 C4.18555249,18.4733242 4.26187761,18.6641627 4.35543272,18.7414997 C4.47524919,18.8213015 4.5837966,18.8647257 4.64780703,18.8647257 C4.67465896,18.8647257 4.71084442,18.8594424 4.75945847,18.8472794 C4.80010046,18.837111 4.83770025,18.825748 4.91154205,18.801422 Z" id="Shape" stroke="url(#linearGradient-2)"></path>
            </g>
        </g>
    </g>
</svg>