<?xml version="1.0" standalone="no"?><!DOCTYPE svg PUBLIC "-//W3C//DTD SVG 1.1//EN" "http://www.w3.org/Graphics/SVG/1.1/DTD/svg11.dtd"><svg t="1546618142015" class="icon" style="" viewBox="0 0 1024 1024" version="1.1" xmlns="http://www.w3.org/2000/svg" p-id="7082" xmlns:xlink="http://www.w3.org/1999/xlink" width="32" height="32"><defs><style type="text/css"></style></defs><path d="M997.888 708.608H37.888l51.712-75.776-51.712-76.288h960l-53.248 76.288z" fill="#FF2655" p-id="7083"></path><path d="M138.752 252.416c0-17.408 13.312-36.352 29.184-42.496l320.512-120.32c16.384-6.144 42.496-6.144 58.88 0L867.84 209.92c16.384 6.144 29.184 25.088 29.184 42.496v487.424c0 17.408-13.312 36.352-29.184 42.496l-320.512 120.32c-16.384 6.144-42.496 6.144-58.88 0l-320.512-120.32c-16.384-6.144-29.184-25.088-29.184-42.496V252.416z" fill="#FFC935" p-id="7084"></path><path d="M196.608 762.368c-16.384-6.144-29.184-25.088-29.184-42.496V272.384c0-17.408 13.312-36.352 29.184-42.496l291.84-109.568c16.384-6.144 42.496-6.144 58.88 0l291.84 109.568c16.384 6.144 29.184 25.088 29.184 42.496v448c0 17.408-13.312 36.352-29.184 42.496l-291.84 109.568c-16.384 6.144-42.496 6.144-58.88 0l-291.84-110.08z" fill="#F99F00" p-id="7085"></path><path d="M323.072 736.256c-8.192 0-16.896-0.512-26.624-2.048l-62.464-8.192 46.08-43.008c12.8-11.776 18.432-27.136 18.432-47.616V444.928h-29.696V366.592h46.08c-11.264-12.288-14.848-26.624-15.872-36.352-3.584-15.872-7.68-36.352-11.264-61.952l-4.608-33.792h135.168l1.536 28.16 1.536 16.896h12.288c3.584-6.656 7.168-14.848 10.24-24.576l6.656-20.48h123.392l-5.12 34.304c-0.512 4.096-1.536 7.68-2.048 11.776 6.656 1.536 12.8 4.096 18.432 7.68 1.536-8.704 3.584-18.432 5.12-28.672l4.096-24.576h114.688l-5.632 34.816c-1.536 8.192-3.072 18.432-5.12 30.72H773.12v80.384h-9.728l-0.512 2.048c-10.24 37.888-22.528 80.896-37.376 128-2.048 8.192-4.096 14.336-5.12 19.456 30.72 86.016 44.544 104.448 48.128 108.032l39.936 39.936-31.232 6.144v46.08H489.472c-24.576 0-60.416-3.584-87.04-22.528-18.432 17.92-45.056 28.16-79.36 28.16zM298.496 434.688" fill="#6B1B1C" p-id="7086"></path><path d="M598.016 508.416H489.472v46.592c3.584-17.408 16.896-26.112 39.424-26.112 42.496-2.56 62.464 14.336 59.904 50.688v24.064c1.024 38.4-13.312 57.344-43.008 56.32-28.672 0-49.664-9.728-63.488-29.696-6.144 16.384-28.16 24.064-65.536 24.064 9.728 17.408 36.864 25.6 80.384 24.064H747.52v20.48H489.472c-54.784 0-85.504-17.408-91.648-52.224-7.68 46.08-39.936 65.536-97.28 57.856 18.432-17.408 28.16-40.448 28.16-69.12V439.296c0-16.384-5.12-24.064-14.848-24.064h-14.848v-18.944h57.856c27.648 1.024 40.96 15.36 40.96 43.008v177.664c3.584 13.824 8.192 24.064 13.312 31.744 13.824-17.408 20.48-47.104 20.48-89.6v-50.688h-18.944v-18.944h54.272v-29.696h71.168v29.696h59.904v18.944zM317.44 263.68h72.704c1.024 20.992 4.096 40.96 9.216 59.904 3.584 16.384 10.752 28.672 20.48 37.376-59.904 6.144-90.112-5.632-91.648-35.328-3.072-15.36-6.656-35.84-10.752-61.952z m303.104 0h54.272c-2.56 14.848-6.144 36.864-11.264 65.536h80.384v20.48h-86.016v3.584c0 23.552-22.528 34.816-67.072 33.792v14.848c3.584 39.936-19.456 57.856-69.12 54.272-20.992 1.024-33.28-5.12-35.328-18.944v18.944H422.4V308.736H450.56c8.704-11.264 16.384-26.112 22.528-45.056h67.072c-2.56 16.384-7.68 30.72-14.848 43.008h13.312c36.352-1.024 53.76 16.896 52.224 54.272v16.896c9.728-17.408 19.456-55.808 29.696-114.176z m-93.696 334.336v-16.896c0-22.528-6.656-32.768-20.48-31.744-7.68 0-13.312 6.144-16.896 18.944v2.048c0 29.696-2.048 49.152-5.632 57.856 0 1.024 0.512 2.048 2.048 2.048 7.68 2.56 14.336 3.072 20.48 2.048 13.824 0.512 20.48-10.24 20.48-34.304z m-40.96-257.536V368.64h40.96v-20.48c0-14.848-7.68-22.528-22.528-22.528-9.728-0.512-15.872 4.608-18.432 14.848z m40.96 67.072v-22.528h-40.96v37.376c5.12 10.24 11.264 14.848 18.944 14.848 13.312 0 20.992-9.728 22.016-29.696z m69.12 2.048h52.224c1.024 5.12 2.56 10.752 3.584 16.896 5.12 12.288 8.704 22.016 11.264 28.16 5.12-23.552 12.288-50.688 22.528-80.384h48.64c-10.24 37.376-22.528 79.872-37.376 126.976-3.584 13.824-6.144 23.552-7.68 29.696 25.088 71.168 44.032 113.152 57.856 126.976-46.08 8.704-72.704-8.704-80.384-52.224-11.264 45.056-38.4 62.976-82.432 54.272 19.968-28.672 38.4-71.68 56.32-129.024-18.432-51.2-33.28-91.648-44.544-121.344z" fill="#FFFFFF" p-id="7087"></path><path d="M940.032 721.408c-85.504-45.056-242.688-75.264-422.4-75.264-180.736 0-338.432 30.72-423.424 76.288L184.32 875.008c76.288-31.744 197.632-52.224 333.824-52.224 135.68 0 256 20.48 332.288 51.712l89.6-153.088z" fill="#FF2655" p-id="7088"></path><path d="M182.784 878.592l-92.672-157.696 3.072-1.536c88.064-47.104 251.392-76.8 424.96-76.8 172.544 0 334.848 29.184 423.424 75.776l3.072 1.536-92.672 158.208-2.56-1.024c-79.36-32.768-200.192-51.2-331.264-51.2-132.096 0-252.928 18.944-332.8 51.712l-2.56 1.024z m-83.968-155.136l86.528 147.456c80.384-32.768 201.216-51.2 332.288-51.2 130.56 0 250.88 18.432 330.752 50.688l87.04-147.968c-88.576-45.568-247.808-73.728-417.792-73.728-170.496 0.512-330.752 28.672-418.816 74.752z" fill="#FFFFFF" p-id="7089"></path><path d="M238.592 733.696l20.48-3.584 9.216 54.784-5.632 1.024-1.024-6.656-8.704 1.536 1.024 7.168-5.632 1.024-9.728-55.296z m15.36 3.072l-8.704 1.536 6.144 37.376 8.704-1.536-6.144-37.376z m12.288 22.528l21.504-3.584-4.608-27.648c-5.632 1.536-12.288 3.072-18.944 4.608-0.512-1.536-1.536-3.584-2.048-5.12 15.872-3.072 30.208-6.656 43.52-10.752l1.536 5.12c-5.632 1.536-11.776 3.072-18.432 4.608l4.608 28.16 21.504-3.584 1.024 5.632-21.504 3.584 3.584 20.992c1.024 6.144-1.024 9.728-6.656 10.752-3.072 0.512-7.168 1.024-12.288 2.048-0.512-2.048-1.536-4.096-2.56-6.144 5.12-0.512 9.216-1.024 11.776-1.536 2.56-0.512 4.096-2.048 3.584-5.12l-3.072-19.456-21.504 3.584-1.024-6.144z m0-20.992l4.608-3.072c4.096 5.12 7.68 10.24 10.752 15.36l-5.12 4.096c-3.072-6.144-6.656-11.264-10.24-16.384z m30.72 10.24c2.56-7.168 4.608-13.312 5.632-19.456l6.144 1.536c-2.048 7.168-4.608 13.824-6.656 19.456l-5.12-1.536zM322.56 714.752l26.112-3.072 6.656 62.464c0.512 5.12-2.048 8.192-7.168 8.704-2.56 0.512-5.632 0.512-8.704 1.024-0.512-2.048-1.024-3.584-1.536-5.632 3.072 0 6.144 0 8.192-0.512 2.56-0.512 3.584-1.536 3.584-4.096l-2.048-16.896-15.36 1.536c0.512 11.264-1.024 20.992-4.608 29.696-1.536-1.536-3.584-2.56-5.12-3.584 4.096-8.192 5.12-18.432 3.584-31.232l-3.584-38.4z m20.992 3.072l-15.36 1.536 1.536 14.336 15.36-1.536-1.536-14.336z m-11.264 35.328l15.36-1.536-1.536-14.336-15.36 1.536 1.536 14.336z m25.088-42.496l29.696-3.072 6.656 62.464c0.512 6.144-2.048 9.216-7.68 9.728-2.56 0.512-5.632 0.512-9.216 1.024-0.512-1.536-1.024-3.584-1.536-5.632 3.072 0 6.144 0 8.704-0.512s4.096-2.048 3.584-4.608l-2.048-17.92-18.944 2.048c0.512 11.776-1.024 21.504-5.12 29.696-1.536-1.536-3.584-2.56-5.12-3.584 4.608-8.192 5.632-18.944 4.096-32.256l-3.072-37.376z m24.576 2.56l-18.432 2.048 1.536 14.336 18.432-2.048-1.536-14.336z m-14.848 35.84l18.432-2.048-1.536-14.336-18.432 2.048 1.536 14.336zM400.896 712.192l18.944-1.024 3.072 53.248-13.312 0.512 0.512 6.144-5.632 0.512-3.584-59.392z m13.824 4.608l-7.68 0.512 2.56 42.496 7.68-0.512-2.56-42.496z m9.728 32.768l5.12-0.512-1.024-22.016c-1.536-1.024-2.56-2.048-4.608-3.584 6.656-6.656 11.264-14.848 14.848-23.552l6.144 0.512c-1.024 2.56-2.56 5.12-3.584 7.68l22.528-1.024 0.512 5.12c-2.048 3.072-5.12 6.656-8.704 11.264l14.336-1.024 1.536 23.552 5.632-0.512 0.512 5.12-22.016 1.024c5.12 8.704 12.8 14.336 23.552 15.872-1.536 2.048-3.072 4.096-4.096 6.144-10.752-3.584-18.944-9.728-24.064-19.456-3.072 9.216-11.264 16.896-23.552 22.528-1.024-1.536-2.56-3.584-4.608-5.12 12.8-5.12 20.48-11.776 23.04-19.968l-20.48 1.024-1.024-3.072z m32.256-35.84l-18.432 1.024c-2.048 3.584-5.12 7.68-7.68 11.264l17.92-1.024c3.072-4.608 6.144-8.704 8.192-11.264z m-21.504 35.328l11.264-0.512c0.512-3.584 0.512-9.728 0-18.432l-12.288 0.512 1.024 18.432z m29.184-19.968l-12.288 0.512c0.512 8.704 0.512 14.848 0.512 18.432l12.8-0.512-1.024-18.432zM481.792 710.656h22.016l1.536-12.288 6.656 1.024c-0.512 4.096-1.024 7.68-1.536 11.264h45.568v6.144h-46.592c-1.024 4.096-1.536 7.68-2.56 11.776h40.96v5.632c-4.096 10.752-9.216 18.944-16.896 25.088 7.168 4.608 15.872 7.68 26.624 9.216-2.048 2.56-3.584 4.608-5.12 7.168-10.752-3.072-19.456-7.168-26.624-12.288-7.68 5.12-16.896 9.728-28.16 13.312-1.536-2.048-3.072-4.096-4.096-6.144 10.752-3.072 19.968-6.656 27.136-11.264-7.168-6.656-12.288-14.848-15.36-25.088-5.12 16.896-12.288 29.696-21.504 38.912-1.536-2.048-2.56-3.584-4.096-5.12 11.264-11.264 18.944-28.16 23.552-50.688h-20.48l-1.024-6.656z m58.368 22.528h-29.184c3.072 8.704 7.68 15.872 14.336 20.992 7.68-5.632 12.288-12.8 14.848-20.992zM636.416 766.464c-2.048 2.048-3.584 4.096-4.608 5.632-13.312-6.656-23.552-14.848-30.72-25.088l-1.536 29.696-6.144-0.512 1.536-30.208c-8.192 8.704-18.944 16.384-32.768 23.552-1.024-1.536-2.56-3.584-4.096-5.632 13.824-6.144 25.6-13.312 35.328-22.016l-32.768-1.536 0.512-5.632 34.816 1.536 1.024-20.48-30.208-1.536 0.512-5.632 30.208 1.536 0.512-11.264 6.144 0.512-0.512 11.264 30.72 1.536v5.632l-30.72-1.536-1.024 20.48 34.816 1.536v5.632l-33.28-1.536c7.168 10.24 17.92 17.92 32.256 24.064z m-63.488-45.056l4.608-3.584c3.584 4.096 7.168 8.192 10.24 12.8l-5.12 4.096c-2.56-3.584-5.632-8.192-9.728-13.312z m36.864 11.264c5.12-4.608 8.704-9.216 11.776-12.8l5.12 4.608c-4.096 4.608-8.192 8.704-12.8 12.288l-4.096-4.096zM656.384 720.896l5.12 0.512-2.048 20.992c-0.512 5.12-1.536 9.728-2.56 13.824 3.584 3.584 6.656 7.68 9.728 11.264l-4.096 3.584c-2.56-3.584-4.608-6.656-7.168-9.728-3.072 7.68-7.68 13.312-13.824 17.408-1.024-1.536-2.048-3.584-3.584-5.12 9.216-5.12 14.848-15.36 16.384-31.744l2.048-20.992z m-8.704-12.8l24.576 2.56-5.12 49.664-5.12-0.512 4.608-44.032-14.336-1.536-4.608 44.544-5.12-0.512 5.12-50.176z m24.576 43.008l10.24 1.024 1.024-7.68-12.8-1.536 0.512-4.096 12.8 1.536 1.024-7.168-10.24-1.024 0.512-4.096 10.24 1.024 0.512-6.656-11.264-1.024 0.512-4.096 10.752 1.024c-1.536-3.072-3.072-6.144-4.608-8.704l5.12-2.048c2.048 3.072 3.584 6.144 5.12 9.216l-3.584 2.048 11.776 1.024c2.56-3.584 4.608-7.168 6.656-10.752l5.632 3.072c-2.048 2.56-4.096 5.632-6.144 8.192l13.312 1.536-0.512 4.096-14.848-1.536-0.512 6.656 12.288 1.536-1.024 11.776 4.608 0.512-0.512 4.096-4.608-0.512-1.536 14.848-4.608-0.512 0.512-3.072-6.144-0.512c3.072 8.192 7.68 14.848 13.824 19.968-1.536 1.024-3.072 2.56-4.608 4.608-5.12-6.144-9.216-12.288-11.264-19.456l-2.56 22.016-5.12-0.512 3.072-26.624-7.68-1.024-3.072 26.624-5.12-0.512 2.56-21.504c-4.608 6.656-10.24 12.288-17.92 16.896-1.024-2.56-1.536-4.096-2.048-5.632 8.192-3.584 14.336-9.216 18.944-16.384l-8.704-1.024-0.512-5.632z m15.36 1.536l7.68 1.024 1.024-7.68-7.68-1.024-1.024 7.68z m1.024-11.776l7.68 1.024 1.024-7.168-7.68-1.024-1.024 7.168z m1.536-11.776l7.68 1.024 0.512-6.656-7.68-1.024-0.512 6.656z m9.728 25.088l7.68 1.024 1.024-7.68-7.68-1.024-1.024 7.68z m9.216-18.432l-7.68-1.024-1.024 7.168 7.68 1.024 1.024-7.168zM721.408 752.64l10.752 2.048 2.048-10.752-4.096-1.024 0.512-4.096c-1.536 2.048-3.072 3.584-4.608 5.12l-3.072-6.144c6.656-7.168 12.288-15.36 16.896-25.088l5.632 2.56c-1.536 3.072-3.584 6.144-5.12 8.704l15.36 2.56-1.024 5.632-17.408-3.072c-2.048 2.56-3.584 5.12-5.632 7.68l19.968 3.584-1.024 5.632-10.24-2.048-2.048 10.752 11.264 2.048-1.024 5.632-11.264-2.048-3.072 16.384c3.584-1.536 7.68-3.072 12.8-5.12v6.144c-5.632 2.048-10.24 4.096-13.824 5.632-2.048 1.024-3.584 2.048-5.12 2.56l-3.072-6.144c2.048-1.536 3.584-3.072 4.096-5.632l2.56-15.36-10.752-2.048 0.512-4.096z m22.016 33.28c7.68-1.536 14.848-4.096 21.504-7.68-1.536-5.632-2.048-11.776-2.048-19.456l-11.776-0.512V752.64l11.776 0.512c0-3.584 0.512-7.168 1.024-11.264l-10.24-0.512v-5.632l10.752 1.024c0.512-5.632 1.536-11.776 3.072-17.92l6.144 1.024c-1.024 6.144-2.048 12.288-2.56 17.408l26.624 2.048-0.512 5.632-27.136-2.048c-0.512 4.096-1.024 7.68-1.024 10.752l26.624 1.536-0.512 5.632-26.624-1.536c0 6.144 0 11.264 1.536 15.872 5.632-3.072 10.752-7.168 15.36-11.776l4.096 4.608c-5.632 5.12-11.264 9.216-17.408 13.312 1.536 3.584 3.584 6.656 6.656 9.216 3.072 2.56 5.12 2.56 6.144-1.024 1.536-4.096 3.072-7.68 4.096-11.264 2.048 1.024 3.584 2.048 5.12 3.072-2.048 6.144-3.584 10.24-5.12 12.8-2.048 4.096-4.608 5.632-8.192 5.12-3.072-0.512-5.632-2.048-8.192-5.12-2.56-2.56-4.608-5.632-6.144-9.216-6.656 3.072-13.312 5.632-20.992 7.68 0.512-2.56-0.512-4.608-2.048-6.656z m35.328-61.44l4.096-3.072c3.584 3.584 6.656 7.168 9.216 10.24l-4.608 3.584c-3.072-3.584-6.144-7.168-8.704-10.752z" fill="#FFFFFF" p-id="7090"></path><path d="M824.41728 770.5856l28.37504-16.384 16.384 28.37504-28.37504 16.384zM203.6224 799.25248l-28.37504-16.384 16.384-28.38016 28.38016 16.384z" fill="#FFFFFF" p-id="7091"></path></svg>