<?xml version="1.0" standalone="no"?><!DOCTYPE svg PUBLIC "-//W3C//DTD SVG 1.1//EN" "http://www.w3.org/Graphics/SVG/1.1/DTD/svg11.dtd"><svg t="1546618089749" class="icon" style="" viewBox="0 0 4862 1024" version="1.1" xmlns="http://www.w3.org/2000/svg" p-id="4634" xmlns:xlink="http://www.w3.org/1999/xlink" width="151.9375" height="32"><defs><style type="text/css"></style></defs><path d="M3063.808 186.654551h305.514403L3231.449021 358.35786l-11.832889 112.547292-192.655276-0.640526-11.462058 111.839341h192.545712l-25.45251 272.712691-135.513547 0.455112-9.253926 101.515061h326.289382l33.888922-374.682864h160.687934l12.111013-116.356741-155.799704-0.514107 8.933663-80.866502 156.659358-200.341596V74.385383h-507.912428zM2984.627095 307.351704l55.026304-0.851227 7.753745-98.995094-50.837597-0.219128 16.451424-132.9093H2854.642305l-18.929252 132.260345-73.180181 0.859655 18.086453-133.12h-154.080395l-15.928889 133.12h-58.102518l-10.113581 98.860247 52.396774-0.648955-34.537876 305.489119 56.804609 170.439111-108.940116 50.247638-13.021234 124.894288 233.008461-74.43595 212.435753 72.219391 10.442271-111.687638-90.331127-50.053794 76.669366-173.473186 47.306272-311.995522z m-195.411227 272.872823l-48.199638 129.116708-29.270386-125.678091 34.428312-278.881975 81.936856 1.719308-38.895144 273.72405zM4790.052872 256.817514l9.683754-103.209086-690.55526-1.694025 18.339292-74.85735h-182.533267l-21.727342 75.042766h-151.501432l-24.424296 103.411358 151.063177 0.640527-195.065679 699.278222h184.5307l125.50953-461.946206 228.263507 232.974749-238.056823 229.047309 239.885695 0.969218 107.49893-102.543276 90.701959 102.863539h248.119835l-195.731489-230.33679 263.93916-250.209975 12.262716-114.511013-718.746864 0.219128 25.503078-105.526782 713.041119 0.387687z m-315.206584 236.742058l-110.979687 115.825778-110.398157-115.90163 221.377844 0.075852zM778.998519 109.681778l-181.892741 0.674238L617.771193 67.213169H480.900741l-24.963688 43.033284-49.952658 0.025284-84.895078 314.422782 371.825778-0.261268L778.998519 109.681778zM604.741531 341.552461H456.611292l17.462782-51.655111h148.155523l-17.488066 51.655111z m29.641218-107.279803h-148.163951l17.488066-51.638255h148.130239l-17.454354 51.638255zM985.13014 74.385383h-149.006749l-69.530864 175.546469H965.787918l-33.863638 103.908609-14.42028-68.317235H766.592527l80.638946 257.559177-134.78874 288.81014h150.372082l39.080559-106.672987 36.535309 106.672987h129.967934l-83.268477-296.614452 67.676708-145.686124 56.720329-139.896099 22.384724 0.176988 25.83177-101.759473-198.605432 0.648954z" p-id="4635" fill="#ffffff"></path><path d="M287.925202 285.523226H97.907885L87.524609 387.013004l25.233383-0.463539-49.548115 570.237366h997.384428l6.76767-96.812247-826.911605 0.699523z" p-id="4636" fill="#ffffff"></path><path d="M279.32023 831.892543h139.011161l51.671967-158.682074 90.921086 0.724807-28.107325 96.281284H480.395062l-15.608626 61.675983h178.201284l55.978667-228.937745h-205.558519l17.134091-50.812312 200.459588 0.530963 13.982025-75.742289-135.353416-0.868082 7.846453-26.624-142.997597-2.604247-10.964806 25.57893-136.221498 0.2107-14.234864 75.674864 66.741201 0.067424zM285.261959 262.093432l-18.187589-171.703309H93.820313l18.078024 171.703309zM1568.017909 324.54479h-260.197135l-10.383276 104.077169h80.638946l-59.821827 528.164872h252.367539l5.233778-93.668609-70.272527-2.604247zM1547.20079 285.514798l-20.800263-211.129415-182.137153 5.97544 18.212873 205.153975zM1586.222354 956.786831h194.779127l8.158289-86.614387 258.637958-0.674238-2.503111 26.362732-27.492082-0.412971-5.790025 61.338864h243.888988l43.901366-464.988708H1635.281646l-49.059292 464.988708z m230.884609-382.402897l259.463901-0.058996-4.365695 46.404478-259.581893 0.775374 4.483687-47.120856z m-14.175868 149.908543h259.489185l-4.39098 46.455046-259.303769-1.989004 4.205564-44.466042zM2117.328593 74.385383h-203.679079l-5.233777 45.435259-245.490305-1.399045-6.169284 70.415802 243.678288 0.488823-6.93623 60.411786-242.144395 0.699523-7.880165 79.324181 240.905482-0.800659-4.635391 40.29419-250.90107-0.977646-7.323918 83.496033 701.983605 1.390617 6.540115-81.08563-247.175901-0.126419 5.461333-47.407408h245.88642l6.691819-76.73679-243.787852 0.12642 6.472691-56.020807 242.270815-0.733234 5.023078-68.806058-239.15246-1.373761z" p-id="4637" fill="#ffffff"></path></svg>