<?xml version="1.0" standalone="no"?><!DOCTYPE svg PUBLIC "-//W3C//DTD SVG 1.1//EN" "http://www.w3.org/Graphics/SVG/1.1/DTD/svg11.dtd"><svg t="1547033689736" class="icon" style="" viewBox="0 0 2161 1024" version="1.1" xmlns="http://www.w3.org/2000/svg" p-id="5605" xmlns:xlink="http://www.w3.org/1999/xlink" width="67.53125" height="32"><defs><style type="text/css"></style></defs><path d="M1649.777778 1024H512c-284.444444 0-512-227.555556-512-512s227.555556-512 512-512h1137.777778c284.444444 0 512 227.555556 512 512s-227.555556 512-512 512z" fill="#FFCA83" p-id="5606"></path><path d="M1649.777778 967.111111H512c-250.311111 0-455.111111-204.8-455.111111-455.111111s204.8-455.111111 455.111111-455.111111h1137.777778c250.311111 0 455.111111 204.8 455.111111 455.111111s-204.8 455.111111-455.111111 455.111111z" fill="#FFB53E" p-id="5607"></path><path d="M1763.555556 250.311111h-176.355556l-250.311111 284.444445H1308.444444v-284.444445h-170.666666v56.888889h56.888889v512h73.955555l494.933334-568.888889z" fill="#FFFFFF" p-id="5608"></path><path d="M1746.488889 512h-91.022222l11.377777-56.888889h5.688889c28.444444 0 56.888889-5.688889 73.955556-17.066667 17.066667-11.377778 34.133333-28.444444 45.511111-51.2h68.266667l-79.644445 438.044445h-91.022222l56.888889-312.888889z" fill="#FFFFFF" p-id="5609"></path><path d="M688.355556 182.044444l102.4 170.666667c5.688889 5.688889 11.377778 11.377778 17.066666 11.377778l204.8 39.822222c22.755556 5.688889 28.444444 28.444444 17.066667 45.511111l-136.533333 147.911111c-5.688889 5.688889-5.688889 11.377778-5.688889 22.755556l22.755555 199.111111c0 22.755556-17.066667 34.133333-39.822222 28.444444L682.666667 768c-5.688889-5.688889-17.066667-5.688889-22.755556 0L466.488889 853.333333c-17.066667 5.688889-39.822222-5.688889-39.822222-28.444444l22.755555-199.111111c0-5.688889 0-17.066667-5.688889-22.755556L301.511111 455.111111c-11.377778-17.066667-5.688889-39.822222 17.066667-45.511111l204.8-39.822222c5.688889 0 11.377778-5.688889 17.066666-11.377778l102.4-170.666667c11.377778-22.755556 34.133333-22.755556 45.511112-5.688889z" fill="#FFFDE5" p-id="5610"></path><path d="M688.355556 182.044444l102.4 170.666667c5.688889 5.688889 11.377778 11.377778 17.066666 11.377778l204.8 39.822222c22.755556 5.688889 28.444444 28.444444 17.066667 45.511111l-136.533333 147.911111c-5.688889 5.688889-5.688889 11.377778-5.688889 22.755556l22.755555 199.111111c0 22.755556-17.066667 34.133333-39.822222 28.444444L682.666667 768c-5.688889-5.688889-17.066667-5.688889-22.755556 0L466.488889 853.333333c-17.066667 5.688889-39.822222-5.688889-39.822222-28.444444l22.755555-199.111111c0-5.688889 0-17.066667-5.688889-22.755556L301.511111 455.111111c-11.377778-17.066667-5.688889-39.822222 17.066667-45.511111l204.8-39.822222c5.688889 0 11.377778-5.688889 17.066666-11.377778l102.4-170.666667c11.377778-22.755556 34.133333-22.755556 45.511112-5.688889z" fill="#FFFDE5" p-id="5611"></path><path d="M665.6 534.755556s-216.177778 290.133333-233.244444 307.2c11.377778 11.377778 22.755556 11.377778 34.133333 11.377777l187.733333-79.644444c5.688889-5.688889 17.066667-5.688889 22.755556 0l187.733333 79.644444c11.377778 5.688889 22.755556 0 28.444445-5.688889-5.688889-17.066667-227.555556-312.888889-227.555556-312.888888z" fill="#FFE5A8" p-id="5612"></path><path d="M665.6 534.755556v233.244444h11.377778l187.733333 79.644444c11.377778 5.688889 22.755556 0 28.444445-5.688888-5.688889-11.377778-227.555556-307.2-227.555556-307.2z" fill="#FCDA97" p-id="5613"></path><path d="M1012.622222 409.6l-204.8-39.822222c-5.688889 0-11.377778-5.688889-17.066666-11.377778l-102.4-170.666667c0-11.377778-11.377778-17.066667-22.755556-17.066666v364.088889l369.777778-108.088889c-5.688889-5.688889-11.377778-11.377778-22.755556-17.066667z" fill="#FFFCEE" p-id="5614"></path><path d="M802.133333 364.088889c-5.688889 0-5.688889-5.688889-5.688889-5.688889l-102.4-170.666667c-5.688889-11.377778-17.066667-17.066667-28.444444-17.066666v364.088889s136.533333-164.977778 136.533333-170.666667z" fill="#FFF5CC" p-id="5615"></path><path d="M295.822222 432.355556c0 5.688889 0 17.066667 5.688889 22.755555l136.533333 147.911111c5.688889 5.688889 5.688889 11.377778 5.688889 22.755556l-22.755555 199.111111c0 11.377778 5.688889 17.066667 11.377778 22.755555l227.555555-307.2-364.088889-108.088888z" fill="#FCF5D6" p-id="5616"></path><path d="M295.822222 432.355556c0 5.688889 0 17.066667 5.688889 22.755555l136.533333 147.911111s5.688889 5.688889 5.688889 11.377778v11.377778l216.177778-85.333334-364.088889-108.088888z" fill="#F4E9A4" p-id="5617"></path><path d="M1029.688889 455.111111c5.688889-5.688889 5.688889-17.066667 5.688889-22.755555l-369.777778 108.088888 227.555556 312.888889c5.688889-5.688889 11.377778-11.377778 11.377777-22.755555l-22.755555-204.8c0-5.688889 0-17.066667 5.688889-22.755556L1029.688889 455.111111z" fill="#FCF5D0" p-id="5618"></path><path d="M1029.688889 455.111111c5.688889-5.688889 5.688889-17.066667 5.688889-22.755555l-369.777778 108.088888 216.177778 85.333334v-11.377778c0-5.688889 5.688889-5.688889 5.688889-11.377778L1029.688889 455.111111z" fill="#F4E9A4" p-id="5619"></path><path d="M665.6 170.666667c-11.377778 0-17.066667 5.688889-22.755556 11.377777l-102.4 170.666667c-5.688889 11.377778-11.377778 17.066667-17.066666 17.066667l-204.8 39.822222c-11.377778 0-17.066667 11.377778-22.755556 22.755556l369.777778 102.4V170.666667z" fill="#FFFFFF" p-id="5620"></path><path d="M665.6 170.666667c-11.377778 0-17.066667 5.688889-22.755556 11.377777l-102.4 170.666667c0 5.688889-5.688889 5.688889-5.688888 5.688889-5.688889 0 136.533333 170.666667 136.533333 170.666667L665.6 170.666667z" fill="#FFFBE9" p-id="5621"></path><path d="M1939.911111 164.977778C2076.444444 284.444444 2093.511111 398.222222 2093.511111 512c0 227.555556-199.111111 432.355556-449.422222 432.355556h-1137.777778c-113.777778 0-227.555556-22.755556-341.333333-142.222223C244.622222 904.533333 369.777778 967.111111 512 967.111111h1137.777778c250.311111 0 455.111111-204.8 455.111111-455.111111 0-142.222222-62.577778-267.377778-164.977778-347.022222z" fill="#FFE1C0" p-id="5622"></path><path d="M73.955556 517.688889c0-233.244444 216.177778-438.044444 443.733333-438.044445h1137.777778c113.777778 0 233.244444 39.822222 341.333333 136.533334C1917.155556 119.466667 1792 56.888889 1649.777778 56.888889H512C261.688889 56.888889 56.888889 261.688889 56.888889 512c0 142.222222 62.577778 267.377778 164.977778 347.022222-96.711111-96.711111-147.911111-199.111111-147.911111-341.333333z" fill="#FFA829" p-id="5623"></path></svg>