<?xml version="1.0" standalone="no"?><!DOCTYPE svg PUBLIC "-//W3C//DTD SVG 1.1//EN" "http://www.w3.org/Graphics/SVG/1.1/DTD/svg11.dtd"><svg t="1547094196777" class="icon" style="" viewBox="0 0 1024 1024" version="1.1" xmlns="http://www.w3.org/2000/svg" p-id="2043" xmlns:xlink="http://www.w3.org/1999/xlink" width="48" height="48"><defs><style type="text/css"></style></defs><path d="M762.30656 355.66592 384.67072 355.66592c-9.472 0-17.16736 8.4224-17.16736 18.7904 0 10.37312 7.69024 18.7904 17.16736 18.7904l377.63072 0c9.47712 0 17.16736-8.41728 17.16736-18.7904C779.4688 364.0832 771.77856 355.66592 762.30656 355.66592L762.30656 355.66592z" p-id="2044" fill="#1296db"></path><path d="M254.7712 374.45632c0 10.37312 6.72256 18.7904 15.03232 18.7904l45.09696 0c8.30464 0 15.03232-8.41728 15.03232-18.7904 0-10.368-6.72768-18.7904-15.03232-18.7904l-45.09696 0C261.49888 355.66592 254.7712 364.0832 254.7712 374.45632L254.7712 374.45632z" p-id="2045" fill="#1296db"></path><path d="M762.30656 562.35008 384.67072 562.35008c-9.472 0-17.16736 8.4224-17.16736 18.79552 0 10.368 7.69024 18.78528 17.16736 18.78528l377.63072 0c9.47712 0 17.16736-8.41728 17.16736-18.78528C779.4688 570.77248 771.77856 562.35008 762.30656 562.35008L762.30656 562.35008z" p-id="2046" fill="#1296db"></path><path d="M314.90048 562.35008l-45.09696 0c-8.30464 0-15.03232 8.4224-15.03232 18.79552 0 10.368 6.72256 18.78528 15.03232 18.78528l45.09696 0c8.30464 0 15.03232-8.41728 15.03232-18.78528C329.9328 570.77248 323.20512 562.35008 314.90048 562.35008L314.90048 562.35008z" p-id="2047" fill="#1296db"></path><path d="M762.30656 769.03936 384.67072 769.03936c-9.472 0-17.16736 8.4224-17.16736 18.78528 0 10.37312 7.69024 18.79552 17.16736 18.79552l377.63072 0c9.47712 0 17.16736-8.4224 17.16736-18.79552C779.4688 777.45664 771.77856 769.03936 762.30656 769.03936L762.30656 769.03936z" p-id="2048" fill="#1296db"></path><path d="M314.90048 769.03936l-45.09696 0c-8.30464 0-15.03232 8.4224-15.03232 18.78528 0 10.37312 6.72256 18.79552 15.03232 18.79552l45.09696 0c8.30464 0 15.03232-8.4224 15.03232-18.79552C329.9328 777.45664 323.20512 769.03936 314.90048 769.03936L314.90048 769.03936z" p-id="2049" fill="#1296db"></path><path d="M385.59232 224.13824l263.05024 0c20.72064 0 37.5808-16.85504 37.5808-37.5808L686.22336 92.61056c0-20.72064-16.86016-37.57568-37.5808-37.57568L385.59232 55.03488c-20.72576 0-37.5808 16.85504-37.5808 37.57568l0 93.94688C348.01152 207.2832 364.86656 224.13824 385.59232 224.13824L385.59232 224.13824zM385.59232 92.61056l263.05024 0 0.0256 93.94688L385.59232 186.55744 385.59232 92.61056 385.59232 92.61056z" p-id="2050" fill="#1296db"></path><path d="M874.12224 55.03488l-150.30784 0 0 37.57568 150.30784 0c31.08352 0 56.3712 25.28256 56.3712 56.3712l0 751.58528c0 31.08352-25.28256 56.36608-56.3712 56.36608L160.11264 956.93312c-31.08352 0-56.36608-25.28256-56.36608-56.36608L103.74656 148.98176c0-31.08352 25.28256-56.3712 56.36608-56.3712l150.31808 0 0-37.57568L160.11264 55.03488c-51.79904 0-93.94688 42.14784-93.94688 93.94688l0 751.58528c0 51.79904 42.14784 93.952 93.94688 93.952l714.00448 0c51.80416 0 93.952-42.14784 93.952-93.952L968.06912 148.98176C968.06912 97.1776 925.9264 55.03488 874.12224 55.03488L874.12224 55.03488z" p-id="2051" fill="#1296db"></path></svg>